<svg width="277" height="61" viewBox="0 0 277 61" fill="none" xmlns="http://www.w3.org/2000/svg">
<path fill-rule="evenodd" clip-rule="evenodd" d="M1.6044 45.6621C2.67427 45.6621 2.67427 46.5501 2.67427 47.7109C2.67427 48.9574 2.67427 49.8453 1.6044 49.8453V50.2038C3.20921 50.2038 3.11827 48.6899 3.11827 47.7109C3.11827 46.823 3.20921 45.3091 1.6044 45.3091V45.6675V45.6621ZM1.6044 49.8453V50.2038C0.0905269 50.2038 0.181466 48.6899 0.181466 47.7109C0.181466 46.823 0.0905269 45.3091 1.6044 45.3091V45.6675C0.625463 45.6675 0.625463 46.5555 0.625463 47.7163C0.625463 48.9627 0.625463 49.8507 1.6044 49.8507V49.8453Z" fill="white"/>
<path fill-rule="evenodd" clip-rule="evenodd" d="M5.5202 47.8878C6.14073 47.8878 6.4082 48.2462 6.4082 48.7758C6.4082 49.4873 6.14073 49.7548 5.5202 49.7548V50.1132H5.61114C6.41355 50.1132 6.7666 49.6692 6.7666 48.7758C6.7666 47.7059 6.14608 47.5294 5.5202 47.5294V47.8878ZM5.5202 45.7534V45.395H6.4082V45.7534H5.5202ZM4.63221 47.8878V49.7548H5.5202V50.1132H4.18286V45.395H5.5202V45.7534H4.63221V47.5348H5.5202V47.8932H4.63221V47.8878Z" fill="white"/>
<path fill-rule="evenodd" clip-rule="evenodd" d="M7.74585 45.395H8.18985L8.09891 49.7601H9.88025V45.395H10.3242V49.7601H12.0146V45.395H12.464V49.7601H12.7261V51.183H12.2821V50.1132H7.74585V45.395Z" fill="white"/>
<path fill-rule="evenodd" clip-rule="evenodd" d="M13.7051 45.395V50.1132H15.9304V49.7601H14.1544V47.8878H15.7539V47.5348H14.1544V45.7534H15.8448V45.395H13.7051Z" fill="white"/>
<path fill-rule="evenodd" clip-rule="evenodd" d="M19.2256 46.5505C19.2256 45.395 18.6051 45.395 18.1557 45.395H18.0648V45.7534C18.5088 45.7534 18.7762 45.7534 18.7762 46.6414C18.7762 47.3529 18.5088 47.5294 18.0648 47.5294V47.8878C18.9528 47.8878 19.2202 47.4438 19.2202 46.5505H19.2256ZM18.0701 45.395V45.7534H17.2677V47.5348H18.0701V47.8932H17.2677V50.1185H16.8237L16.9147 45.4004H18.0701V45.395Z" fill="white"/>
<path fill-rule="evenodd" clip-rule="evenodd" d="M21.5419 45.6621C22.6118 45.6621 22.5208 46.5501 22.5208 47.7109C22.5208 48.9574 22.5208 49.8453 21.5419 49.8453V50.2038C23.0558 50.2038 22.9648 48.6899 22.9648 47.7109C22.9648 46.823 23.0558 45.3091 21.5419 45.3091V45.6675V45.6621ZM21.5419 49.8453V50.2038C19.9371 50.2038 20.028 48.6899 20.028 47.7109C20.028 46.823 19.9371 45.3091 21.5419 45.3091V45.6675C20.472 45.6675 20.472 46.5555 20.472 47.7163C20.472 48.9627 20.472 49.8507 21.5419 49.8507V49.8453Z" fill="white"/>
<path fill-rule="evenodd" clip-rule="evenodd" d="M24.0345 47.7109C24.0345 46.823 23.9436 45.3091 25.4574 45.3091C26.7038 45.3091 26.7038 46.379 26.7038 46.6464H26.2598C26.2598 46.1115 26.0833 45.6675 25.4574 45.6675C24.4785 45.6675 24.4785 46.5555 24.4785 47.7163C24.4785 48.9627 24.3876 49.8507 25.4574 49.8507C25.9924 49.8507 26.2598 49.4067 26.2598 48.7808H26.7038C26.7038 49.1392 26.6129 50.2038 25.4574 50.2038C23.9436 50.2038 24.0345 48.6899 24.0345 47.7109Z" fill="white"/>
<path fill-rule="evenodd" clip-rule="evenodd" d="M27.592 47.7109C27.592 46.823 27.5011 45.3091 29.1059 45.3091C30.3523 45.3091 30.2613 46.379 30.2613 46.6464H29.8173C29.9083 46.1115 29.6408 45.6675 29.1059 45.6675C28.036 45.6675 28.036 46.5555 28.036 47.7163C28.036 48.9627 28.036 49.8507 29.1059 49.8507C29.6408 49.8507 29.8173 49.4067 29.8173 48.7808H30.2613C30.2613 49.1392 30.2613 50.2038 29.1059 50.2038C27.5011 50.2038 27.592 48.6899 27.592 47.7109Z" fill="white"/>
<path fill-rule="evenodd" clip-rule="evenodd" d="M31.3308 50.1132V45.395H31.7748V49.2252L33.6471 45.395H34.0911V50.1132H33.6471V46.2884L31.7748 50.1132H31.3308Z" fill="white"/>
<path fill-rule="evenodd" clip-rule="evenodd" d="M36.0491 44.2388C36.1401 44.5972 36.5841 44.6828 36.7606 44.6828C36.9371 44.6828 37.3811 44.5918 37.4721 44.2388H37.7395C37.7395 44.7737 37.2046 44.9502 36.7606 44.9502C36.4022 44.9502 35.7817 44.7737 35.7817 44.2388H36.0491ZM37.6539 50.1124V46.2822L35.787 50.1124H35.343V45.3942H35.787V49.2244L37.6539 45.3942H38.0979V50.1124H37.6539Z" fill="white"/>
<path fill-rule="evenodd" clip-rule="evenodd" d="M39.1623 47.7109C39.1623 46.823 39.0714 45.3091 40.6762 45.3091C41.9226 45.3091 41.8317 46.379 41.8317 46.6464H41.3877C41.3877 46.1115 41.2111 45.6675 40.6762 45.6675C39.6063 45.6675 39.6063 46.5555 39.6063 47.7163C39.6063 48.9627 39.6063 49.8507 40.6762 49.8507C41.2111 49.8507 41.3877 49.4067 41.3877 48.7808H41.8317C41.8317 49.1392 41.7407 50.2038 40.6762 50.2038C39.0714 50.2038 39.1623 48.6899 39.1623 47.7109Z" fill="white"/>
<path fill-rule="evenodd" clip-rule="evenodd" d="M42.9019 50.1132L42.9928 45.395H43.3459V47.5348L45.1272 45.395H45.5712L43.7952 47.6204L45.6621 50.1132H45.1272L43.3459 47.7113V50.1132H42.9019Z" fill="white"/>
<path fill-rule="evenodd" clip-rule="evenodd" d="M48.4222 48.5132H47.7108V48.8716H48.5132L48.8716 50.118H49.3156L47.9782 45.3999H47.7108V45.8439L48.4222 48.5132ZM47.7108 48.5132V48.8716H46.9084L46.55 50.118H46.106L47.4433 45.3999H47.7108V45.8439L46.9993 48.5132H47.7108Z" fill="white"/>
<path fill-rule="evenodd" clip-rule="evenodd" d="M52.0705 50.1126V47.7964H51.2681V47.438H52.0705V45.7476H51.2681V45.3892H52.5145V50.1073H52.0705V50.1126ZM51.2681 47.7964V47.438C50.7332 47.438 50.4657 47.2614 50.4657 46.459C50.4657 45.8385 50.7332 45.7476 51.1772 45.7476H51.2681V45.3892H51.1772C50.1983 45.3892 50.0217 45.6566 50.0217 46.5446C50.0217 47.0796 50.1127 47.5236 50.7332 47.6145C50.1127 47.791 50.0217 47.882 50.0217 49.5724V50.1073H50.3801C50.4711 50.0164 50.4711 49.2193 50.4711 48.9518C50.4711 48.7753 50.2945 47.7964 51.2735 47.7964H51.2681Z" fill="white"/>
<path fill-rule="evenodd" clip-rule="evenodd" d="M56.8796 45.6621C57.8585 45.6621 57.8585 46.5501 57.8585 47.7109C57.8585 48.9574 57.8585 49.8453 56.8796 49.8453V50.2038C58.3934 50.2038 58.3025 48.6899 58.3025 47.7109C58.3025 46.823 58.3934 45.3091 56.8796 45.3091V45.6675V45.6621ZM56.8796 49.8453V50.2038C55.2748 50.2038 55.3657 48.6899 55.3657 47.7109C55.3657 46.823 55.2748 45.3091 56.8796 45.3091V45.6675C55.8097 45.6675 55.8097 46.5555 55.8097 47.7163C55.8097 48.9627 55.8097 49.8507 56.8796 49.8507V49.8453Z" fill="white"/>
<path fill-rule="evenodd" clip-rule="evenodd" d="M60.7042 47.8878C61.3247 47.8878 61.5922 48.2462 61.5922 48.7758C61.5922 49.4873 61.3247 49.7548 60.7042 49.7548V50.1132H60.7951C61.5975 50.1132 62.0415 49.6692 62.0415 48.7758C62.0415 47.7059 61.33 47.5294 60.7042 47.5294V47.8878ZM60.7042 45.7534V45.395H61.5922V45.7534H60.7042ZM59.8162 47.8878V49.7548H60.7042V50.1132H59.4578V45.395H60.7042V45.7534H59.8162V47.5348H60.7042V47.8932H59.8162V47.8878Z" fill="white"/>
<path fill-rule="evenodd" clip-rule="evenodd" d="M62.9299 45.395H63.3739V49.7601H65.0697V45.395H65.5137V49.7601H67.2041V45.395H67.6481V49.7601H68.0065V51.183H67.5571V50.1132H62.9299V45.395Z" fill="white"/>
<path fill-rule="evenodd" clip-rule="evenodd" d="M71.1196 45.395V45.7534H69.3383V47.5348H71.0287V47.8878H69.3383V49.7601H71.1196V50.1132H68.8943V45.395H71.1196Z" fill="white"/>
<path fill-rule="evenodd" clip-rule="evenodd" d="M72.0076 47.7109C72.0076 46.823 71.9167 45.3091 73.5215 45.3091C74.7679 45.3091 74.677 46.379 74.677 46.6464H74.233C74.233 46.1115 74.0564 45.6675 73.5215 45.6675C72.4516 45.6675 72.4516 46.5555 72.4516 47.7163C72.4516 48.9627 72.4516 49.8507 73.4306 49.8507C74.0511 49.8507 74.233 49.4067 74.233 48.7808H74.677C74.677 49.1392 74.586 50.2038 73.4306 50.2038C71.9167 50.2038 72.0076 48.6899 72.0076 47.7109Z" fill="white"/>
<path fill-rule="evenodd" clip-rule="evenodd" d="M76.5493 45.7534H75.3938V45.395H78.1541V45.7534H76.9933L76.9077 50.1132H76.5493V45.7534Z" fill="white"/>
<path fill-rule="evenodd" clip-rule="evenodd" d="M80.1973 45.753C80.5557 45.753 80.9997 45.753 80.9997 46.5554C80.9997 47.0903 80.8232 47.5343 80.1973 47.5343V47.8927C80.9997 47.8927 81.0853 48.4276 81.0853 48.8716C81.0853 49.4922 80.8179 49.7596 80.1973 49.7596V50.118H80.2883C81.0907 50.118 81.5347 49.674 81.5347 48.7807C81.5347 48.2458 81.3581 47.8018 80.7323 47.6252C81.3528 47.4487 81.4437 47.0903 81.4437 46.5554C81.4437 45.6674 80.9997 45.3999 80.2883 45.3999H80.1973V45.7583V45.753ZM79.3949 47.5343H80.1973V47.8927H79.3949V49.7596H80.1973V50.118H78.9509V45.3999H80.1973V45.7583H79.3949V47.5396V47.5343Z" fill="white"/>
<path fill-rule="evenodd" clip-rule="evenodd" d="M82.6047 45.395V50.1132H84.8247V49.7601H82.9578V47.8878H84.6482V47.5348H82.9578L83.0487 45.7534H84.7391V45.395H82.6047Z" fill="white"/>
<path fill-rule="evenodd" clip-rule="evenodd" d="M85.8091 50.1132V45.395H86.2531V47.5348H88.12V45.395H88.564V50.1132H88.12V47.8878H86.2531V50.1132H85.8091Z" fill="white"/>
<path fill-rule="evenodd" clip-rule="evenodd" d="M89.8103 50.1132V45.395H90.2596V47.5348H92.1266V45.395H92.5706V50.1132H92.1266V47.8878H90.2596L90.1687 50.1132H89.8103Z" fill="white"/>
<path fill-rule="evenodd" clip-rule="evenodd" d="M95.6891 48.5132H94.9776V48.8716H95.78L96.1384 50.118H96.5824L95.2451 45.3999H94.9776V45.9348L95.6891 48.5186V48.5132ZM94.9776 48.5132V48.8716H94.1752L93.8168 50.118H93.3728L94.7101 45.3999H94.9776V45.9348V45.8439L94.2661 48.5132H94.9776Z" fill="white"/>
<path fill-rule="evenodd" clip-rule="evenodd" d="M99.3375 50.1126V47.7964H98.5351V47.438H99.3375V45.7476H98.5351V45.3892H99.7815V50.1073H99.3375V50.1126ZM98.5351 47.7964V47.438C97.9146 47.438 97.6471 47.2614 97.6471 46.459C97.7381 45.8385 97.9146 45.7476 98.4495 45.7476H98.5405V45.3892H98.4495C97.4706 45.3892 97.2941 45.6566 97.2941 46.5446C97.2941 47.0796 97.385 47.5236 98.0055 47.6145C97.2941 47.791 97.2941 47.882 97.2941 49.5724C97.2941 49.7489 97.2941 49.9308 97.2031 50.1073H97.6471C97.6471 50.0164 97.7381 49.2193 97.7381 48.9518C97.7381 48.7753 97.5615 47.7964 98.5405 47.7964H98.5351Z" fill="white"/>
<path fill-rule="evenodd" clip-rule="evenodd" d="M104.056 45.6621H104.147C105.125 45.6621 105.125 46.5501 105.125 47.7109C105.125 48.9574 105.125 49.8453 104.056 49.8453V50.2038C105.66 50.2038 105.569 48.6899 105.569 47.7109C105.569 46.823 105.66 45.3091 104.147 45.3091H104.056V45.6675V45.6621ZM104.056 49.8453V50.2038C102.542 50.2038 102.633 48.6899 102.633 47.7109C102.633 46.823 102.542 45.3091 104.056 45.3091V45.6675C103.077 45.6675 103.077 46.5555 103.077 47.7163C103.077 48.9627 103.077 49.8507 104.056 49.8507V49.8453Z" fill="white"/>
<path fill-rule="evenodd" clip-rule="evenodd" d="M108.592 46.6414C108.592 47.3529 108.324 47.5294 107.88 47.5294V47.8878C108.683 47.8878 109.036 47.4438 109.036 46.5505C109.036 45.395 108.415 45.395 107.966 45.395H107.875V45.7534C108.233 45.7534 108.587 45.7534 108.587 46.6414H108.592ZM107.88 47.5294V47.8878H107.078V50.1132H106.634V45.395H107.88V45.7534H107.078V47.5348H107.88V47.5294Z" fill="white"/>
<path fill-rule="evenodd" clip-rule="evenodd" d="M109.929 50.1132H110.373V45.7534H111.978V45.395H109.929V50.1132Z" fill="white"/>
<path fill-rule="evenodd" clip-rule="evenodd" d="M113.486 48.5132H114.198L113.486 45.8439V45.3999H113.754L115.091 50.118H114.647L114.289 48.8716H113.486V48.5132ZM113.486 45.8439V45.3999H113.219L111.882 50.118H112.326L112.593 48.8716H113.481V48.5132H112.77L113.481 45.8439H113.486Z" fill="white"/>
<path fill-rule="evenodd" clip-rule="evenodd" d="M115.894 50.1132V45.395H116.338V47.5348H118.204V45.395H118.654V50.1132H118.204V47.8878H116.338V50.1132H115.894Z" fill="white"/>
<path fill-rule="evenodd" clip-rule="evenodd" d="M119.81 50.1132L119.895 45.395H120.254V49.2252L122.211 45.395H122.57V50.1132H122.211V46.2884L120.254 50.1132H119.81Z" fill="white"/>
<path fill-rule="evenodd" clip-rule="evenodd" d="M124.613 47.4435C125.416 47.5344 125.683 47.176 125.683 46.4645C125.683 45.9296 125.506 45.6621 124.972 45.6621C124.437 45.6621 124.169 46.0205 124.26 46.5501H123.816C123.725 45.8386 124.175 45.3037 124.886 45.3037C125.688 45.3037 126.132 45.5712 126.132 46.4592C126.132 46.9941 126.041 47.529 125.421 47.6146V47.7056C126.041 47.7056 126.223 48.2405 126.223 48.861C126.223 49.749 125.779 50.1984 124.977 50.1984C124.175 50.1984 123.64 49.84 123.731 48.952H124.175C124.084 49.4869 124.351 49.84 124.886 49.84C125.597 49.84 125.774 49.4816 125.774 48.952C125.774 48.1496 125.507 47.7965 124.619 47.8821V47.4381L124.613 47.4435Z" fill="white"/>
<path fill-rule="evenodd" clip-rule="evenodd" d="M128.534 48.5137H129.246L128.534 45.93V45.395H128.802L130.139 50.1132H129.695L129.337 48.8668H128.534V48.5083V48.5137ZM128.534 45.8444V45.9353V45.4004H128.267L126.844 50.1185H127.379L127.646 48.8721H128.534V48.5137H127.732L128.443 45.8444H128.534Z" fill="white"/>
<path fill-rule="evenodd" clip-rule="evenodd" d="M130.936 45.395H131.38V49.7601H133.247V45.395H133.697V49.7601H133.964V51.183H133.515V50.1132H130.936V45.395Z" fill="white"/>
<path fill-rule="evenodd" clip-rule="evenodd" d="M134.852 50.1132L134.943 45.395H135.296V49.2252L137.254 45.395H137.612V50.1132H137.254V46.2884H137.168L135.296 50.1132H134.852Z" fill="white"/>
<path fill-rule="evenodd" clip-rule="evenodd" d="M140.816 47.4438H140.014V47.8022H140.816V50.1185H141.26V45.4004H140.014V45.7588H140.816V47.4492V47.4438ZM140.014 47.4438V47.8022C139.126 47.8022 139.212 48.7812 139.212 48.9577C139.212 49.2252 139.212 50.0276 139.121 50.1132H138.762V49.5782C138.762 47.8878 138.853 47.7969 139.474 47.6204C138.853 47.5294 138.762 47.0854 138.762 46.5505C138.762 45.6625 139.03 45.395 139.918 45.395H140.009V45.7534H139.918C139.474 45.7534 139.206 45.8444 139.206 46.4649C139.206 47.2673 139.474 47.4438 140.009 47.4438H140.014Z" fill="white"/>
<path fill-rule="evenodd" clip-rule="evenodd" d="M144.106 50.1132V45.395H144.909L146.246 49.6692H146.332L147.669 45.395H148.381V50.1132H147.937V45.7534L146.514 50.1132H146.064L144.556 45.7534V50.1132H144.106Z" fill="white"/>
<path fill-rule="evenodd" clip-rule="evenodd" d="M151.494 48.5132H150.783V48.8716H151.671L151.938 50.118H152.382L151.045 45.3999H150.777V45.9348L151.489 48.5186L151.494 48.5132ZM150.783 48.5132V48.8716H149.98L149.622 50.118H149.178L150.515 45.3999H150.783V45.9348V45.8439L150.071 48.5132H150.783Z" fill="white"/>
<path fill-rule="evenodd" clip-rule="evenodd" d="M156.127 50.1132H155.768V45.7534H154.169V47.1764C154.169 48.7812 154.169 49.4017 153.725 49.9366C153.457 50.2041 153.281 50.2041 153.104 50.2041C152.928 50.2041 152.837 50.1132 152.837 50.1132V49.7548C152.837 49.7548 152.928 49.8457 153.013 49.8457C153.099 49.8457 153.281 49.7548 153.372 49.6692C153.816 49.0486 153.73 48.5137 153.73 46.7324L153.821 45.395H156.137V50.1132H156.127Z" fill="white"/>
<path fill-rule="evenodd" clip-rule="evenodd" d="M158.796 45.6621C159.775 45.6621 159.775 46.5501 159.775 47.7109C159.775 48.9574 159.775 49.8453 158.796 49.8453V50.2038C160.31 50.2038 160.219 48.6899 160.219 47.7109C160.219 46.823 160.31 45.3091 158.796 45.3091V45.6675V45.6621ZM158.796 49.8453V50.2038C157.191 50.2038 157.282 48.6899 157.282 47.7109C157.282 46.823 157.191 45.3091 158.796 45.3091V45.6675C157.726 45.6675 157.726 46.5555 157.726 47.7163C157.726 48.9627 157.726 49.8507 158.796 49.8507V49.8453Z" fill="white"/>
<path fill-rule="evenodd" clip-rule="evenodd" d="M161.374 45.395H163.423V45.7534H161.732V50.1132H161.374V45.395Z" fill="white"/>
<path fill-rule="evenodd" clip-rule="evenodd" d="M165.563 45.6621H165.654C166.633 45.6621 166.633 46.5501 166.633 47.7109C166.633 48.9574 166.633 49.8453 165.563 49.8453V50.2038C167.167 50.2038 167.077 48.6899 167.077 47.7109C167.077 46.823 167.167 45.3091 165.654 45.3091H165.563V45.6675V45.6621ZM165.563 49.8453V50.2038C164.049 50.2038 164.14 48.6899 164.14 47.7109C164.14 46.823 164.049 45.3091 165.563 45.3091V45.6675C164.584 45.6675 164.584 46.5555 164.584 47.7163C164.584 48.9627 164.584 49.8507 165.563 49.8507V49.8453Z" fill="white"/>
<path fill-rule="evenodd" clip-rule="evenodd" d="M169.922 50.1132L170.008 45.395H170.366V49.2252L172.324 45.395H172.683V50.1132H172.324V46.2884H172.233L170.366 50.1132H169.922Z" fill="white"/>
<path fill-rule="evenodd" clip-rule="evenodd" d="M175.62 47.7109C175.62 46.823 175.443 45.3091 177.043 45.3091C178.289 45.3091 178.198 46.379 178.198 46.6464H177.754C177.845 46.1115 177.663 45.6675 177.043 45.6675C175.973 45.6675 175.973 46.5555 175.973 47.7163C175.973 48.9627 175.973 49.8507 177.043 49.8507C177.578 49.8507 177.845 49.4067 177.845 48.7808H178.289C178.289 49.1392 178.198 50.2038 177.043 50.2038C175.438 50.2038 175.62 48.6899 175.62 47.7109Z" fill="white"/>
<path fill-rule="evenodd" clip-rule="evenodd" d="M181.226 46.6414C181.226 47.3529 180.958 47.5294 180.423 47.5294V47.8878H180.514C181.317 47.8878 181.67 47.4438 181.67 46.5505C181.67 45.395 180.958 45.395 180.6 45.395H180.423V45.7534C180.867 45.7534 181.226 45.7534 181.226 46.6414ZM180.423 47.5294V47.8878H179.712L179.621 50.1132H179.262V45.395H180.418V45.7534H179.706V47.5348H180.418L180.423 47.5294Z" fill="white"/>
<path fill-rule="evenodd" clip-rule="evenodd" d="M184.697 45.395V45.7534H183.007L182.916 47.5348H184.606V47.8878H182.916V49.7601H184.788V50.1132H182.563V45.395H184.697Z" fill="white"/>
<path fill-rule="evenodd" clip-rule="evenodd" d="M187.19 45.753H188.346V49.7596H187.19V50.118H188.613V51.1879H189.057V49.765H188.699L188.79 45.4052H187.185V45.7637L187.19 45.753ZM186.12 49.7596H187.19V50.118H185.767V51.1879H185.323V49.765H185.682C185.949 49.4975 186.217 48.877 186.302 48.4276C186.479 47.7162 186.479 47.1812 186.479 45.7583V45.3999H187.19V45.7583H186.923V45.9348C186.923 47.0903 186.832 47.8018 186.746 48.3367C186.57 48.9572 186.388 49.5831 186.126 49.7596H186.12Z" fill="white"/>
<path fill-rule="evenodd" clip-rule="evenodd" d="M189.95 50.1132V45.395H190.394V47.5348H192.261V45.395H192.71V50.1132H192.261V47.8878H190.394V50.1132H189.95Z" fill="white"/>
<path fill-rule="evenodd" clip-rule="evenodd" d="M196.092 45.395V45.7534H194.31V47.5348H196.001V47.8878H194.31V49.7601H196.183V50.1132H193.957V45.395H196.092Z" fill="white"/>
<path fill-rule="evenodd" clip-rule="evenodd" d="M197.161 45.395H199.205V45.7534H197.605L197.514 50.1132H197.161V45.395Z" fill="white"/>
<path fill-rule="evenodd" clip-rule="evenodd" d="M201.43 45.6621C202.409 45.6621 202.409 46.5501 202.409 47.7109C202.409 48.9574 202.409 49.8453 201.43 49.8453V50.2038C202.944 50.2038 202.853 48.6899 202.853 47.7109C202.853 46.823 202.944 45.3091 201.43 45.3091V45.6675V45.6621ZM201.339 49.8453H201.43V50.2038H201.339C199.825 50.2038 199.916 48.6899 199.916 47.7109C199.916 46.823 199.825 45.3091 201.43 45.3091V45.6675C200.36 45.6675 200.36 46.5555 200.36 47.7163C200.36 48.9627 200.36 49.8507 201.339 49.8507V49.8453Z" fill="white"/>
<path fill-rule="evenodd" clip-rule="evenodd" d="M205.704 50.1132L205.795 45.395H208.465V50.1132H208.106V45.7534H206.148V50.1132H205.704Z" fill="white"/>
<path fill-rule="evenodd" clip-rule="evenodd" d="M211.669 46.6414C211.669 47.3529 211.31 47.5294 210.866 47.5294V47.8878H210.957C211.76 47.8878 212.027 47.4438 212.027 46.5505C212.027 45.395 211.407 45.395 211.048 45.395H210.872V45.7534C211.316 45.7534 211.674 45.7534 211.674 46.6414H211.669ZM210.866 47.5294V47.8878H210.064V50.1132H209.706V45.395H210.861V45.7534H210.059V47.5348H210.861L210.866 47.5294Z" fill="white"/>
<path fill-rule="evenodd" clip-rule="evenodd" d="M215.141 45.395V45.7534H213.359V47.5348H215.05V47.8878H213.359V49.7601H215.226V50.1132H212.915L213.001 45.395H215.141Z" fill="white"/>
<path fill-rule="evenodd" clip-rule="evenodd" d="M217.634 45.753H218.789V49.7596H217.634V50.118H219.056V51.1879H219.5V49.765H219.142V45.4052H217.628V45.7637L217.634 45.753ZM216.564 49.7596H217.634V50.118H216.211V51.1879H215.767V49.765H216.125C216.302 49.4975 216.569 48.877 216.746 48.4276C216.922 47.7162 216.922 47.1812 216.922 45.7583V45.3999H217.634V45.7583H217.366V45.9348C217.366 47.0903 217.275 47.8018 217.19 48.3367C217.013 48.9572 216.831 49.5831 216.569 49.7596H216.564Z" fill="white"/>
<path fill-rule="evenodd" clip-rule="evenodd" d="M220.388 50.1132V45.395H223.149V50.1132H222.705V45.7534H220.838V50.1132H220.388Z" fill="white"/>
<path fill-rule="evenodd" clip-rule="evenodd" d="M226.267 46.6414C226.267 47.3529 226 47.5294 225.556 47.5294H225.465V47.8878H225.556C226.358 47.8878 226.711 47.4438 226.711 46.5505C226.711 45.395 226 45.395 225.641 45.395H225.465V45.7534H225.556C225.914 45.7534 226.267 45.7534 226.267 46.6414ZM225.465 47.5294V47.8878H224.753V50.1132H224.309V45.395H225.465V45.7534H224.753V47.5348H225.465V47.5294Z" fill="white"/>
<path fill-rule="evenodd" clip-rule="evenodd" d="M227.599 50.1132V45.395H228.043V49.2252L229.916 45.395H230.36V50.1132H229.916V46.2884L228.043 50.1132H227.599Z" fill="white"/>
<path fill-rule="evenodd" clip-rule="evenodd" d="M231.515 50.1132L231.606 45.395H231.964V47.5348H233.922V45.395H234.275V50.1132H233.922V47.8878H231.964V50.1132H231.515Z" fill="white"/>
<path fill-rule="evenodd" clip-rule="evenodd" d="M235.522 50.1132V45.395H235.966V49.2252L237.838 45.395H238.282V50.1132H237.838V46.2884L235.966 50.1132H235.522Z" fill="white"/>
<path fill-rule="evenodd" clip-rule="evenodd" d="M239.528 50.1132V45.395H240.24L241.663 49.6692L243.091 45.395H243.802V50.1132H243.353V45.7534L241.93 50.1132H241.395L239.972 45.7534V50.1132H239.528Z" fill="white"/>
<path fill-rule="evenodd" clip-rule="evenodd" d="M246.204 48.5132H246.916L246.204 45.8439V45.3999H246.472L247.809 50.118H247.365L247.007 48.8716H246.204V48.5132ZM246.204 45.8439V45.3999H245.937L244.6 50.118H245.044C245.044 50.118 245.402 48.8716 245.311 48.8716H246.199V48.5132H245.488L246.199 45.8439H246.204Z" fill="white"/>
<path fill-rule="evenodd" clip-rule="evenodd" d="M249.05 45.7534H247.895V45.395H250.655V45.7534H249.5V50.1132H249.05V45.7534Z" fill="white"/>
<path fill-rule="evenodd" clip-rule="evenodd" d="M251.457 45.395V50.1132H253.683V49.7601H251.901V47.8878H253.592V47.5348H251.901V45.7534H253.683V45.395H251.457Z" fill="white"/>
<path fill-rule="evenodd" clip-rule="evenodd" d="M257.684 50.1132H257.24V45.7534H255.726V47.1764C255.726 48.7812 255.726 49.4017 255.191 49.9366C255.015 50.2041 254.747 50.2041 254.571 50.2041C254.394 50.2041 254.303 50.1132 254.303 50.1132V49.7548C254.303 49.7548 254.394 49.8457 254.48 49.8457C254.566 49.8457 254.747 49.7548 254.924 49.6692C255.282 49.0486 255.282 48.5137 255.282 46.7324V45.395H257.684V50.1132Z" fill="white"/>
<path fill-rule="evenodd" clip-rule="evenodd" d="M260.888 48.8668C260.888 49.6692 260.444 49.7548 260.086 49.7548V50.1132H260.177C260.535 50.1132 261.247 50.1132 261.247 48.9577C261.247 47.8878 260.888 47.5348 260.091 47.5348V47.8932C260.535 47.8932 260.894 48.0697 260.894 48.8721L260.888 48.8668ZM260.086 49.7548V50.1132H258.93V45.395H259.374L259.283 47.5294H260.086V47.8878H259.283V49.7548H260.086Z" fill="white"/>
<path fill-rule="evenodd" clip-rule="evenodd" d="M262.049 47.7109C262.049 46.823 261.958 45.3091 263.563 45.3091C264.81 45.3091 264.719 46.379 264.719 46.6464H264.275C264.275 46.1115 264.098 45.6675 263.563 45.6675C262.493 45.6675 262.493 46.5555 262.493 47.7163C262.493 48.9627 262.493 49.8507 263.563 49.8507C264.098 49.8507 264.275 49.4067 264.275 48.7808H264.719C264.719 49.1392 264.719 50.2038 263.563 50.2038C261.958 50.2038 262.049 48.6899 262.049 47.7109Z" fill="white"/>
<path fill-rule="evenodd" clip-rule="evenodd" d="M266.585 45.7534H265.43V45.395H268.19V45.7534H267.035V50.1132H266.585V45.7534Z" fill="white"/>
<path fill-rule="evenodd" clip-rule="evenodd" d="M270.239 45.753C270.597 45.753 271.041 45.753 271.041 46.5554C271.041 47.0903 270.865 47.5343 270.239 47.5343V47.8927H270.33C271.041 47.8927 271.132 48.4276 271.132 48.8716C271.132 49.4922 270.865 49.7596 270.244 49.7596V50.118H270.335C271.138 50.118 271.582 49.674 271.582 48.7807C271.582 48.2458 271.405 47.8018 270.779 47.6252C271.4 47.4487 271.491 47.0903 271.491 46.5554C271.491 45.6674 271.132 45.3999 270.335 45.3999H270.244V45.7583L270.239 45.753ZM269.437 47.5343H270.239V47.8927H269.437V49.7596H270.239V50.118H268.993V45.3999H270.239V45.7583H269.437V47.5396V47.5343Z" fill="white"/>
<path fill-rule="evenodd" clip-rule="evenodd" d="M273.796 48.5137H274.599L273.796 45.93V45.395H274.064L275.401 50.1132H275.043L274.684 48.8668H273.796V48.5083V48.5137ZM273.796 45.8444V45.9353V45.4004H273.529L272.192 50.1185H272.636L272.994 48.8721H273.796V48.5137H273.085L273.796 45.8444Z" fill="white"/>
<path fill-rule="evenodd" clip-rule="evenodd" d="M68.274 21.9856C69.7879 21.9856 71.4783 22.4296 72.9012 23.9435C74.2386 25.3664 75.3031 27.4152 75.3031 30.6195C75.3031 32.4864 75.0356 34.7118 73.5218 36.584C72.6338 37.563 71.2055 38.7184 68.8036 38.7184H68.2687V39.6064C71.7404 39.6064 73.8748 38.0016 75.1212 36.5787C76.4586 35.0648 77.5231 33.016 77.5231 29.9936C77.5231 28.0358 77.0791 25.3664 74.8538 23.4086C72.8049 21.6272 70.4031 21.0923 68.3543 21.0923H68.2633V21.9803L68.274 21.9856ZM61.3306 29.7315C61.3306 32.7593 62.2186 34.8027 63.3794 36.14C64.8932 38.007 66.7602 38.6329 68.274 38.7238V39.6118H68.1831C66.4018 39.6118 63.374 39.2534 61.2396 36.584C59.7258 34.8027 59.1052 32.4918 59.1052 30.352C59.1052 28.7472 59.4636 26.6128 61.154 24.564C62.3095 22.9592 64.4492 21.1832 68.274 21.0923V21.9803C68.274 21.8893 68.1831 21.8893 68.1831 21.8893C66.8458 21.8893 64.7114 22.2477 63.1975 23.9381C61.8601 25.3611 61.3306 27.3189 61.3306 29.7262V29.7315Z" fill="white"/>
<path fill-rule="evenodd" clip-rule="evenodd" d="M94.796 23.0555C94.796 22.879 94.796 22.6971 94.7051 22.6115C94.6142 22.435 94.4376 22.435 94.2611 22.435H85.5363C85.3598 22.435 85.1779 22.435 85.0923 22.6115C84.9158 22.7025 84.9158 22.879 84.9158 23.0555V35.2521C84.9158 35.6961 85.0067 37.6539 85.1832 38.2798C85.2742 38.7238 85.5416 38.9003 86.2531 38.9913H86.6115C86.879 38.9913 87.232 38.9003 87.232 39.1678C87.232 39.3443 86.9646 39.3443 86.9646 39.3443H86.788C86.5206 39.3443 86.1675 39.2534 85.9 39.2534H82.1608C81.6259 39.3443 81.5403 39.3443 81.4494 39.3443C81.2728 39.3443 81.2728 39.1678 81.2728 39.1678C81.2728 38.9913 81.3638 38.9913 81.5403 38.9913H81.8987C82.4337 38.9003 82.6102 38.6329 82.7011 38.2798C82.7921 37.8358 82.9686 37.0334 82.9686 34.7171V24.7459C82.9686 24.4784 82.9686 23.232 82.8776 22.788C82.8776 22.6115 82.7867 22.344 82.6102 22.1675C82.3427 21.9001 81.9897 21.9001 81.8078 21.8091H81.3638C81.3638 21.8091 81.1873 21.8091 81.1873 21.6326C81.1873 21.4561 81.3638 21.4561 81.4547 21.4561H82.2571C82.6155 21.4561 83.5035 21.547 84.3059 21.547H96.0531C96.4971 21.547 97.0321 21.547 98.1019 21.4561H98.2785C98.455 21.4561 98.5459 21.547 98.5459 21.6326C98.5459 21.7182 98.455 21.8091 98.2785 21.8091H98.1019C97.4814 21.9001 97.214 21.9856 97.0321 22.4296C96.9411 22.6062 96.8555 22.9646 96.7646 24.0344V34.7171C96.7646 35.3377 96.7646 37.563 97.0321 38.2798C97.123 38.7238 97.3905 38.9003 98.1019 38.9913H98.4604C98.7278 38.9913 99.0809 38.9003 99.0809 39.1678C99.0809 39.3443 98.9044 39.3443 98.8134 39.3443H98.7225C98.3641 39.3443 98.011 39.2534 97.6526 39.2534H94.0043C93.5603 39.3443 93.3838 39.3443 93.3838 39.3443C93.2073 39.3443 93.1163 39.1678 93.1163 39.1678C93.1163 38.9913 93.2929 38.9913 93.3838 38.9913H93.8278C94.2718 38.9003 94.4483 38.6329 94.5393 38.2798C94.8067 37.5683 94.8067 36.1454 94.8067 35.343V23.0609L94.796 23.0555Z" fill="white"/>
<path fill-rule="evenodd" clip-rule="evenodd" d="M111.71 21.9856C113.224 21.9856 114.915 22.4296 116.338 23.9435C117.675 25.3664 118.74 27.4152 118.654 30.6195C118.654 32.4864 118.386 34.7118 116.873 36.584C116.07 37.563 114.556 38.7184 112.245 38.7184H111.71V39.6064C115.182 39.6064 117.231 38.0016 118.477 36.5787C119.815 35.0648 120.97 33.016 120.97 29.9936C120.97 28.0358 120.435 25.3664 118.21 23.4086C116.252 21.6272 113.85 21.0923 111.71 21.0923V21.9803V21.9856ZM104.767 29.7315C104.676 32.7593 105.655 34.8027 106.725 36.14C108.239 38.007 110.197 38.6329 111.71 38.7238V39.6118H111.534C109.844 39.6118 106.816 39.2534 104.59 36.584C103.168 34.8027 102.456 32.4918 102.456 30.352C102.456 28.7472 102.9 26.6128 104.505 24.564C105.751 22.9592 107.886 21.1832 111.716 21.0923V21.9803C111.716 21.8893 111.625 21.8893 111.539 21.8893C110.202 21.8893 108.158 22.2477 106.645 23.9381C105.307 25.3611 104.778 27.3189 104.778 29.7262L104.767 29.7315Z" fill="white"/>
<path fill-rule="evenodd" clip-rule="evenodd" d="M126.662 24.9224C126.662 23.1411 126.571 22.6062 126.486 22.4296C126.395 22.3387 126.127 21.8947 125.507 21.8091H125.148C124.972 21.8091 124.613 21.8091 124.613 21.6326C124.613 21.5416 124.704 21.4561 124.881 21.4561H124.972C126.042 21.547 126.662 21.547 127.374 21.547H128.62C129.155 21.4561 129.69 21.4561 130.31 21.4561C132.894 21.4561 134.135 22.0766 134.938 22.7934C135.826 23.6814 136.093 24.7513 136.093 25.6393C136.093 26.7091 135.916 28.223 134.579 29.555C133.333 30.8923 131.819 31.2454 130.128 31.2454H129.952C129.861 31.2454 129.594 31.2454 129.594 31.0689C129.594 30.8923 129.861 30.8923 129.952 30.8923H130.219C131.824 30.8014 133.247 30.0043 133.868 28.7579C134.226 28.1374 134.226 27.4206 134.226 26.891C134.317 25.6446 134.05 24.3982 132.98 23.3283C131.824 22.2585 130.396 22.1729 129.952 22.1729H129.684C129.15 22.1729 128.615 22.1729 128.615 22.7934V34.7225C128.615 35.343 128.615 37.5683 128.791 38.2852C128.968 38.7292 129.235 38.9057 129.947 38.9966H130.658C130.749 38.9966 130.835 38.9966 130.835 39.1732C130.835 39.4406 130.032 39.3497 129.679 39.2641H127.277C127.101 39.2641 126.031 39.2641 125.587 39.355H125.143C124.966 39.2641 124.966 39.1785 124.966 39.1785C124.966 39.002 125.057 39.002 125.143 39.002H125.41C125.854 38.911 126.213 38.911 126.389 38.2905C126.48 38.023 126.657 37.3116 126.657 34.7278V24.9385L126.662 24.9224Z" fill="white"/>
<path fill-rule="evenodd" clip-rule="evenodd" d="M145.176 24.7464C145.267 24.7464 145.267 24.8373 145.353 24.9229L147.578 31.3314C147.578 31.4224 147.578 31.508 147.402 31.508H145.176V32.3104H147.76C147.76 32.3104 147.937 32.3104 147.937 32.4869L150.162 38.2749C150.162 38.4514 150.162 38.7189 150.071 38.8954C149.98 38.9864 149.804 38.8954 149.804 39.072C149.804 39.2485 150.071 39.2485 150.248 39.2485C150.515 39.2485 151.494 39.3394 151.852 39.3394H154.078C154.254 39.3394 154.698 39.3394 154.698 39.1629C154.698 39.1023 154.668 39.0434 154.607 38.9864H153.896C152.74 38.8098 152.291 37.9165 152.029 37.205C151.67 36.4936 151.05 35.1562 148.381 28.0362C147.937 26.7898 147.493 25.6344 147.043 24.4736C146.685 23.5856 146.332 22.7832 146.064 21.8898C145.973 21.6223 145.706 21.0874 145.529 21.0874C145.353 21.0874 145.262 21.2639 145.171 21.5314V24.7357L145.176 24.7464ZM142.951 31.5133H145.176V32.3157H142.684C142.593 32.3157 142.507 32.3157 142.507 32.5832L141.17 36.7664C140.811 37.6544 140.811 38.0128 140.811 38.1893C140.811 38.9008 141.432 38.9917 141.614 38.9917H141.881C141.881 38.9917 142.058 38.9917 142.058 39.1683C142.058 39.3448 141.79 39.3448 141.699 39.3448C141.432 39.3448 141.079 39.2538 140.72 39.2538H139.565C137.96 39.2538 138.227 39.2538 137.339 39.3448H137.163C136.986 39.3448 136.896 39.2538 136.896 39.1683C136.896 38.9008 137.254 38.9917 137.607 38.9917C138.318 38.9008 139.03 38.7243 139.741 36.7664L144.994 22.077C145.085 21.9005 145.085 21.7186 145.171 21.5421V24.7464C145.08 24.7464 144.994 24.8373 144.994 24.9229L142.86 31.3314C142.86 31.4224 142.769 31.508 142.951 31.508V31.5133Z" fill="white"/>
<path fill-rule="evenodd" clip-rule="evenodd" d="M163.514 24.9224C163.514 23.1411 163.423 22.6062 163.337 22.4296C163.246 22.3387 163.07 21.8947 162.358 21.8091H162.091C161.824 21.8091 161.47 21.8091 161.47 21.6326C161.47 21.5416 161.561 21.4561 161.738 21.4561H161.914C162.984 21.547 163.519 21.547 164.231 21.547H165.568C166.103 21.4561 166.638 21.4561 167.173 21.4561C169.842 21.4561 171.089 22.0766 171.891 22.7934C172.693 23.6814 173.046 24.7513 173.046 25.6393C173.046 26.7091 172.779 28.223 171.533 29.555C170.195 30.8923 168.772 31.2454 167.082 31.2454H166.905C166.729 31.2454 166.461 31.2454 166.461 31.0689C166.461 30.8923 166.729 30.8923 166.905 30.8923H167.173C168.687 30.8014 170.11 30.0043 170.736 28.7579C171.094 28.1374 171.18 27.4206 171.18 26.891C171.18 25.6446 171.003 24.3982 169.933 23.3283C168.687 22.2585 167.349 22.1729 166.905 22.1729H166.638C166.017 22.1729 165.568 22.1729 165.568 22.7934L165.477 34.7225C165.477 35.343 165.477 37.5683 165.745 38.2852C165.836 38.7292 166.103 38.9057 166.814 38.9966H167.617C167.617 38.9966 167.793 38.9966 167.793 39.1732C167.793 39.4406 166.991 39.3497 166.547 39.2641H164.231C163.963 39.2641 162.984 39.2641 162.449 39.355H162.091C161.914 39.2641 161.824 39.1785 161.824 39.1785C161.824 39.002 161.914 39.002 162 39.002H162.268C162.712 38.911 163.07 38.911 163.246 38.2905C163.337 38.023 163.514 37.3116 163.514 34.7278V24.9385V24.9224Z" fill="white"/>
<path fill-rule="evenodd" clip-rule="evenodd" d="M185.141 21.9856C186.655 21.9856 188.345 22.4296 189.768 23.9435C191.106 25.3664 192.17 27.4152 192.17 30.6195C192.17 32.4864 191.903 34.7118 190.303 36.584C189.501 37.563 187.987 38.7184 185.676 38.7184H185.141V39.6064C188.613 39.6064 190.747 38.0016 191.994 36.5787C193.331 35.0648 194.396 33.016 194.396 29.9936C194.396 28.0358 193.861 25.3664 191.635 23.4086C189.677 21.6272 187.276 21.0923 185.227 21.0923H185.136V21.9803L185.141 21.9856ZM178.198 29.7315C178.198 32.7593 179.086 34.8027 180.246 36.14C181.76 38.007 183.627 38.6329 185.141 38.7238V39.6118H185.05C183.269 39.6118 180.241 39.2534 178.107 36.584C176.593 34.8027 175.881 32.4918 175.972 30.352C175.972 28.7472 176.331 26.6128 178.021 24.564C179.177 22.9592 181.316 21.1832 185.141 21.0923V21.9803C185.141 21.8893 185.05 21.8893 185.05 21.8893C183.627 21.8893 181.578 22.2477 180.065 23.9381C178.727 25.3611 178.198 27.3189 178.198 29.7262V29.7315Z" fill="white"/>
<path fill-rule="evenodd" clip-rule="evenodd" d="M212.915 26.2598C212.739 26.2598 212.739 25.9923 212.739 25.8158C212.739 24.8368 212.562 23.5904 210.781 22.788C209.267 22.0766 207.576 22.0766 206.865 22.0766C205.26 22.0766 203.217 22.344 201.703 23.767C200.28 25.0134 199.568 27.0622 199.568 29.6406C199.568 34.4496 202.773 38.5419 208.379 38.5419C210.069 38.5419 211.76 38.1835 212.471 36.8515C212.739 36.3166 212.915 35.6051 213.006 35.2467C213.006 35.1558 213.006 35.0702 213.183 35.0702C213.359 35.0702 213.359 35.3376 213.359 35.4286C213.359 36.14 212.915 38.5419 212.648 38.9003C212.38 39.2587 210.69 39.6118 208.02 39.6118C205.704 39.6118 202.682 39.3443 200.275 37.119C198.049 35.0702 197.429 32.4918 197.429 30.0846C197.429 27.4152 198.584 25.1899 200.098 23.676C201.788 21.8947 204.105 21.0923 207.218 21.0923C208.288 21.0923 209.176 21.1832 210.155 21.3598C210.599 21.4507 211.043 21.4507 211.578 21.6272C211.845 21.6272 212.022 21.7182 212.289 21.7182C212.824 21.8091 213.001 21.7182 213.177 21.8091C213.268 21.8091 213.268 21.9 213.354 21.9856V22.1622C213.263 22.7827 213.177 22.9646 213.177 25.099C213.177 25.6339 213.177 26.2544 212.91 26.2544L212.915 26.2598Z" fill="white"/>
<path fill-rule="evenodd" clip-rule="evenodd" d="M231.783 26.2598C231.606 26.2598 231.692 25.9923 231.606 25.8158C231.606 24.8368 231.429 23.5904 229.648 22.788C228.225 22.0766 226.444 22.0766 225.732 22.0766C224.128 22.0766 222.17 22.344 220.57 23.767C219.147 25.0134 218.436 27.0622 218.436 29.6406C218.436 34.4496 221.731 38.5419 227.337 38.5419C229.028 38.5419 230.718 38.1835 231.429 36.8515C231.697 36.3166 231.788 35.6051 231.873 35.2467C231.873 35.1558 231.964 35.0702 232.05 35.0702C232.227 35.0702 232.227 35.3376 232.227 35.4286C232.227 36.14 231.868 38.5419 231.606 38.9003C231.248 39.2587 229.648 39.6118 226.888 39.6118C224.572 39.6118 221.635 39.3443 219.142 37.119C216.917 35.0702 216.296 32.4918 216.296 30.0846C216.296 27.4152 217.452 25.1899 218.965 23.676C220.747 21.8947 222.972 21.0923 226.085 21.0923C227.155 21.0923 228.043 21.1832 229.022 21.3598C229.466 21.4507 230.001 21.4507 230.445 21.6272C230.713 21.6272 230.889 21.7182 231.157 21.7182C231.777 21.8091 231.959 21.7182 232.045 21.8091C232.136 21.8091 232.221 21.9 232.221 21.9856V22.1622C232.13 22.7827 232.045 22.9646 232.045 25.099C232.045 25.6339 232.136 26.2544 231.777 26.2544L231.783 26.2598Z" fill="white"/>
<path fill-rule="evenodd" clip-rule="evenodd" d="M250.564 21.7187C250.741 21.4512 251.008 21.0981 251.276 21.0981C251.452 21.0981 251.72 21.1891 251.72 21.8096V34.8942C251.629 37.6544 251.896 38.3659 252.164 38.6334C252.34 38.9008 252.784 38.9008 253.052 38.9918H253.319C253.678 38.9918 253.94 38.9008 253.94 39.1683C253.94 39.3448 253.763 39.3448 253.672 39.3448H253.581C252.693 39.3448 251.8 39.2539 250.998 39.2539H250.463C249.842 39.2539 249.307 39.2539 248.505 39.3448H248.328C248.152 39.2539 248.061 39.1683 248.152 39.0774C248.152 38.9864 248.243 38.9864 248.328 38.9864H248.772C248.949 38.8955 249.216 38.8099 249.307 38.719C249.398 38.628 249.575 38.3605 249.666 37.5635C249.756 36.852 249.756 35.6056 249.756 34.8942L249.847 24.5699L238.362 39.1683C238.271 39.3448 238.004 39.7032 237.742 39.7032C237.565 39.7032 237.383 39.6123 237.383 38.9918V25.0192C237.383 23.2379 237.292 22.703 237.207 22.4355C237.03 22.0771 236.763 21.9005 236.137 21.815H235.779C235.688 21.815 235.602 21.724 235.602 21.6384C235.602 21.4619 235.779 21.4619 235.87 21.4619H236.046C236.581 21.4619 237.651 21.5528 238.18 21.5528H238.624C238.983 21.5528 239.427 21.5528 240.582 21.4619H240.759C240.85 21.4619 240.935 21.5528 240.935 21.6384C240.935 21.815 240.759 21.815 240.491 21.815L240.224 21.9059C239.866 21.9059 239.603 22.0824 239.422 22.4408C239.422 22.6174 239.245 22.9758 239.245 24.2222V36.1513L250.548 21.7294L250.564 21.7187Z" fill="white"/>
<path fill-rule="evenodd" clip-rule="evenodd" d="M272.732 21.7187C272.908 21.4512 273.176 21.0981 273.443 21.0981C273.62 21.0981 273.887 21.1891 273.887 21.8096L273.796 34.8942C273.796 37.6544 273.973 38.3659 274.24 38.6334C274.508 38.9008 274.952 38.9008 275.219 38.9918H275.487C275.754 38.9918 276.107 38.9008 276.107 39.1683C276.107 39.3448 275.931 39.3448 275.84 39.3448H275.749C274.861 39.3448 273.968 39.2539 273.08 39.2539H272.636C272.015 39.2539 271.48 39.2539 270.587 39.3448H270.496C270.228 39.2539 270.228 39.1683 270.228 39.0774C270.319 38.9864 270.405 38.9864 270.405 38.9864H270.94C271.116 38.8955 271.384 38.8099 271.475 38.719C271.566 38.628 271.742 38.3605 271.833 37.5635C271.924 36.852 271.924 35.6056 271.924 34.8942V24.5699L260.53 39.1683C260.354 39.3448 260.172 39.7032 259.91 39.7032C259.733 39.7032 259.551 39.6123 259.551 38.9918V25.0192C259.551 23.2379 259.46 22.703 259.375 22.4355C259.198 22.0771 258.931 21.9005 258.305 21.815H257.946C257.855 21.815 257.77 21.724 257.77 21.6384C257.77 21.4619 257.861 21.4619 258.037 21.4619H258.128C258.749 21.4619 259.819 21.5528 260.354 21.5528H260.712C261.156 21.5528 261.514 21.5528 262.761 21.4619H262.852C263.028 21.4619 263.119 21.5528 263.119 21.6384C263.119 21.815 262.943 21.815 262.675 21.815L262.317 21.9059C262.049 21.9059 261.782 22.0824 261.605 22.4408C261.514 22.6174 261.429 22.9758 261.429 24.2222V36.1513L272.732 21.7294V21.7187Z" fill="white"/>
<path fill-rule="evenodd" clip-rule="evenodd" d="M3.29517 23.2321L51.6267 0.802246V38.098L46.1061 30.1756H3.29517V23.2321Z" fill="#1B2665"/>
<path d="M27.239 11.7351H27.2938L27.3436 11.7121L51.9117 0.390476V39.6295H0.250802L0.34014 11.7351H27.239Z" fill="#1B2665" stroke="white" stroke-width="0.5"/>
<path fill-rule="evenodd" clip-rule="evenodd" d="M3.29517 23.2321L51.6267 0.802246V38.098L46.1061 30.1756H3.29517V23.2321Z" fill="white"/>
<path fill-rule="evenodd" clip-rule="evenodd" d="M3.29517 25.5482L49.8453 11.5703L51.6267 38.0978L46.1061 30.1754H3.29517V25.5482Z" fill="#3B6FB6"/>
<path fill-rule="evenodd" clip-rule="evenodd" d="M3.29517 27.8596L47.62 22.2534L51.6267 38.0982L46.1061 30.1758H3.29517V27.8596Z" fill="#E3001F"/>
<path d="M49.1925 55.1626V56.4197C49.1925 56.96 49.476 57.2649 50.0323 57.2649C50.3105 57.2649 50.6101 57.1686 50.8134 57.0402V55.1572H51.3322V59.1265H50.8134V57.4414H50.8026C50.5245 57.6019 50.1982 57.6875 49.8505 57.6875C49.3262 57.6875 48.679 57.4628 48.679 56.4946V55.1572H49.1925V55.1626Z" fill="white"/>
<path d="M56.2913 55.1626L57.0777 56.853C57.1793 57.0884 57.2703 57.3184 57.3666 57.5538H57.3773C57.4468 57.3505 57.5217 57.1205 57.6233 56.8369L58.2438 55.1679H58.7841L57.955 57.2061C57.7357 57.7356 57.4896 58.3401 57.2114 58.7146C56.9547 59.0355 56.6658 59.2014 56.3127 59.2014C56.1843 59.2014 56.0881 59.1907 56.0239 59.1639L56.0774 58.7467C56.1202 58.7574 56.179 58.7627 56.2646 58.7627C56.6765 58.7574 56.9172 58.3615 57.0402 58.078C57.083 57.9871 57.067 57.9336 57.0242 57.8373L55.7083 55.1626H56.2913Z" fill="white"/>
<path d="M63.1277 55.216C63.3524 55.1678 63.7054 55.1357 64.0638 55.1357C64.5774 55.1357 64.9037 55.2267 65.1551 55.4246C65.3637 55.5797 65.4868 55.8151 65.4868 56.1254C65.4868 56.5105 65.2353 56.8422 64.8181 56.9973V57.008C65.1925 57.1043 65.6365 57.4146 65.6365 58.003C65.6365 58.3454 65.5028 58.6021 65.2995 58.8001C65.0214 59.0515 64.5774 59.1692 63.9301 59.1692C63.577 59.1692 63.3042 59.1478 63.133 59.121V55.2213L63.1277 55.216ZM63.6412 56.8422H64.1066C64.6469 56.8422 64.9679 56.5587 64.9679 56.1789C64.9679 55.7135 64.6148 55.5316 64.0959 55.5316C63.8606 55.5316 63.7268 55.5476 63.6412 55.569V56.8475V56.8422ZM63.6412 58.7412C63.7429 58.7573 63.8873 58.7626 64.0692 58.7626C64.5988 58.7626 65.0856 58.57 65.0856 57.9923C65.0856 57.452 64.6202 57.2273 64.0638 57.2273H63.6412V58.7412Z" fill="white"/>
<path d="M70.879 57.8801L70.4671 59.1265H69.9375L71.2855 55.1572H71.9061L73.2595 59.1265H72.7138L72.2912 57.8801H70.8843H70.879ZM72.1789 57.4789L71.7884 56.3394C71.6974 56.0827 71.6386 55.8473 71.5798 55.6173H71.5691C71.5102 55.8526 71.446 56.0934 71.3711 56.3341L70.9806 57.4842H72.1735L72.1789 57.4789Z" fill="white"/>
<path d="M78.2611 55.1626V58.6985H79.5503V55.1626H80.0585V58.6985H81.3424V55.1626H81.8559V59.1318H77.7583V55.1626H78.2665H78.2611Z" fill="white"/>
<path d="M89.4304 58.9983C89.2432 59.0946 88.8634 59.1855 88.3819 59.1855C87.2639 59.1855 86.4241 58.4794 86.4241 57.1795C86.4241 55.8796 87.2639 55.0986 88.4943 55.0986C88.9864 55.0986 89.302 55.2056 89.4358 55.2752L89.3127 55.6924C89.1202 55.5961 88.842 55.5266 88.5103 55.5266C87.5795 55.5266 86.9644 56.1204 86.9644 57.1635C86.9644 58.1371 87.5207 58.7576 88.4889 58.7576C88.7992 58.7576 89.1202 58.6934 89.3234 58.5918L89.4304 58.9983Z" fill="white"/>
<path d="M94.4965 55.1626V56.9225H94.657L96.0157 55.1626H96.6362L95.1331 56.9814C95.7857 57.0723 96.0371 57.4682 96.2457 58.0031C96.3901 58.4096 96.5025 58.7734 96.679 59.1265H96.128C95.9889 58.8536 95.8766 58.5006 95.7696 58.1903C95.5877 57.6661 95.3363 57.3077 94.6623 57.3077H94.4965V59.1265H93.9883V55.1572H94.4965V55.1626Z" fill="white"/>
<path d="M104.377 57.1042C104.377 58.4683 103.548 59.1958 102.537 59.1958C101.526 59.1958 100.755 58.3827 100.755 57.1844C100.755 55.9273 101.536 55.1035 102.596 55.1035C103.655 55.1035 104.377 55.9327 104.377 57.1095V57.1042ZM101.301 57.1684C101.301 58.0136 101.761 58.7732 102.569 58.7732C103.377 58.7732 103.842 58.0243 103.842 57.1256C103.842 56.3392 103.43 55.5154 102.574 55.5154C101.718 55.5154 101.301 56.2964 101.301 57.1684Z" fill="white"/>
<path d="M111.015 57.2702H109.474V58.6985H111.192V59.1265H108.961V55.1572H111.101V55.5852H109.469V56.8369H111.01V57.2595L111.015 57.2702Z" fill="white"/>
<path d="M120.938 55.2106C121.185 55.1678 121.511 55.1357 121.923 55.1357C122.431 55.1357 122.8 55.2534 123.035 55.4674C123.255 55.6546 123.383 55.9435 123.383 56.2966C123.383 56.6496 123.276 56.9385 123.078 57.1418C122.805 57.4306 122.367 57.5751 121.864 57.5751C121.709 57.5751 121.57 57.5697 121.452 57.5376V59.1264H120.938V55.2053V55.2106ZM121.452 57.1257C121.564 57.1578 121.703 57.1685 121.875 57.1685C122.495 57.1685 122.87 56.8689 122.87 56.3233C122.87 55.7777 122.5 55.5476 121.933 55.5476C121.709 55.5476 121.538 55.5637 121.452 55.5904V57.1311V57.1257Z" fill="white"/>
<path d="M130.043 57.2702H128.502V58.6985H130.219V59.1265H127.989V55.1572H130.128V55.5852H128.497V56.8369H130.037V57.2595L130.043 57.2702Z" fill="white"/>
<path d="M136.911 55.1626V55.5905H135.317V59.1265H134.804V55.1572H136.911V55.1626Z" fill="white"/>
<path d="M141.753 55.1626V56.8316C141.753 57.4628 141.742 57.9817 141.705 58.5113H141.715C141.913 58.1047 142.165 57.6768 142.453 57.2061L143.737 55.1626H144.251V59.1318H143.769V57.4414C143.769 56.7995 143.775 56.3288 143.818 55.8313H143.802C143.609 56.2592 143.336 56.7193 143.063 57.1633L141.822 59.1372H141.277V55.1679H141.758L141.753 55.1626Z" fill="white"/>
<path d="M152.452 57.1042C152.452 58.4683 151.622 59.1958 150.611 59.1958C149.6 59.1958 148.83 58.3827 148.83 57.1844C148.83 55.9273 149.611 55.1035 150.67 55.1035C151.729 55.1035 152.452 55.9327 152.452 57.1095V57.1042ZM149.376 57.1684C149.376 58.0136 149.836 58.7732 150.644 58.7732C151.451 58.7732 151.917 58.0243 151.917 57.1256C151.917 56.3392 151.505 55.5154 150.649 55.5154C149.793 55.5154 149.376 56.2964 149.376 57.1684Z" fill="white"/>
<path d="M157.544 55.1626V56.8209H159.464V55.1626H159.983V59.1318H159.464V57.2702H157.544V59.1318H157.03V55.1626H157.544Z" fill="white"/>
<path d="M165.429 57.8801L165.017 59.1265H164.488L165.836 55.1572H166.456L167.81 59.1265H167.264L166.842 57.8801H165.435H165.429ZM166.729 57.4789L166.339 56.3394C166.248 56.0827 166.189 55.8473 166.13 55.6173H166.119C166.06 55.8526 165.996 56.0934 165.921 56.3341L165.531 57.4842H166.724L166.729 57.4789Z" fill="white"/>
<path d="M175.117 55.1626V59.1318H174.598V55.5959H173.287V56.7995C173.287 57.6607 173.25 58.6183 172.693 58.9927C172.549 59.089 172.319 59.18 172.089 59.18L172.025 58.7681C172.185 58.736 172.351 58.645 172.442 58.5541C172.758 58.2438 172.79 57.4735 172.79 56.8369V55.1679H175.122L175.117 55.1626Z" fill="white"/>
<path d="M180.434 55.1626V56.6444C180.552 56.6283 180.787 56.6176 180.921 56.6176C181.734 56.6176 182.451 56.976 182.451 57.8533C182.451 58.2224 182.333 58.4953 182.146 58.6985C181.825 59.0409 181.268 59.1639 180.723 59.1639C180.364 59.1639 180.092 59.1425 179.92 59.1158V55.1626H180.434ZM180.434 58.736C180.552 58.7574 180.68 58.7681 180.857 58.7681C181.429 58.7681 181.916 58.4899 181.916 57.8854C181.916 57.2809 181.413 57.0242 180.851 57.0242C180.723 57.0242 180.562 57.0349 180.434 57.0509V58.736Z" fill="white"/>
<path d="M187.543 55.1626V56.8209H189.464V55.1626H189.982V59.1318H189.464V57.2702H187.543V59.1318H187.03V55.1626H187.543Z" fill="white"/>
<path d="M198.178 57.1042C198.178 58.4683 197.349 59.1958 196.337 59.1958C195.326 59.1958 194.556 58.3827 194.556 57.1844C194.556 55.9273 195.337 55.1035 196.396 55.1035C197.456 55.1035 198.178 55.9327 198.178 57.1095V57.1042ZM195.102 57.1684C195.102 58.0136 195.562 58.7732 196.37 58.7732C197.177 58.7732 197.643 58.0243 197.643 57.1256C197.643 56.3392 197.231 55.5154 196.375 55.5154C195.519 55.5154 195.102 56.2964 195.102 57.1684Z" fill="white"/>
<path d="M204.816 57.2702H203.276V58.6985H204.993V59.1265H202.762V55.1572H204.902V55.5852H203.27V56.8369H204.811V57.2595L204.816 57.2702Z" fill="white"/>
<path d="M218.131 57.1042C218.131 58.4683 217.302 59.1958 216.291 59.1958C215.28 59.1958 214.509 58.3827 214.509 57.1844C214.509 55.9273 215.29 55.1035 216.349 55.1035C217.409 55.1035 218.131 55.9327 218.131 57.1095V57.1042ZM215.055 57.1684C215.055 58.0136 215.515 58.7732 216.323 58.7732C217.13 58.7732 217.596 58.0243 217.596 57.1256C217.596 56.3392 217.184 55.5154 216.328 55.5154C215.472 55.5154 215.055 56.2964 215.055 57.1684Z" fill="white"/>
<path d="M223.422 55.6013H222.218V55.168H225.155V55.6013H223.94V59.1318H223.422V55.6013Z" fill="white"/>
<path d="M231.932 55.1626V58.7092L232.28 58.7199L232.242 60.0787H231.841L231.804 59.1265H229.3L229.263 60.0787H228.862L228.824 58.7199L229.124 58.7092C229.274 58.4364 229.418 58.1529 229.514 57.8373C229.648 57.3772 229.702 56.8476 229.702 56.1683V55.1626H231.922H231.932ZM230.188 56.3341C230.188 56.9707 230.129 57.5056 229.99 57.955C229.91 58.2331 229.787 58.4953 229.664 58.7092H231.419V55.5905H230.188V56.3395V56.3341Z" fill="white"/>
<path d="M238.897 57.2702H237.356V58.6985H239.073V59.1265H236.843V55.1572H238.983V55.5852H237.351V56.8369H238.892V57.2595L238.897 57.2702Z" fill="white"/>
<path d="M246.419 55.1626V59.1318H245.9V55.5959H244.589V56.7995C244.589 57.6607 244.552 58.6183 243.995 58.9927C243.851 59.089 243.621 59.18 243.391 59.18L243.327 58.7681C243.487 58.736 243.653 58.645 243.744 58.5541C244.06 58.2438 244.092 57.4735 244.092 56.8369V55.1679H246.424L246.419 55.1626Z" fill="white"/>
<path d="M253.276 57.2702H251.735V58.6985H253.453V59.1265H251.222V55.1572H253.362V55.5852H251.73V56.8369H253.271V57.2595L253.276 57.2702Z" fill="white"/>
<path d="M258.551 55.1626V56.8209H260.471V55.1626H260.99V59.1318H260.471V57.2702H258.551V59.1318H258.037V55.1626H258.551Z" fill="white"/>
<path d="M266.275 55.1626V56.8316C266.275 57.4628 266.264 57.9817 266.227 58.5113H266.237C266.435 58.1047 266.687 57.6768 266.976 57.2061L268.26 55.1626H268.773V59.1318H268.292V57.4414C268.292 56.7995 268.297 56.3288 268.34 55.8313H268.324C268.131 56.2592 267.858 56.7193 267.586 57.1633L266.344 59.1372H265.799V55.1679H266.28L266.275 55.1626Z" fill="white"/>
<path d="M275.637 57.2702H274.096V58.6985H275.813V59.1265H273.583V55.1572H275.722V55.5852H274.091V56.8369H275.631V57.2595L275.637 57.2702Z" fill="white"/>
</svg>
