<svg width="288" height="63" viewBox="0 0 288 63" fill="none" xmlns="http://www.w3.org/2000/svg">
<path fill-rule="evenodd" clip-rule="evenodd" d="M1.67354 47.6288C2.7895 47.6288 2.7895 48.5551 2.7895 49.7659C2.7895 51.066 2.7895 51.9922 1.67354 51.9922V52.3661C3.34747 52.3661 3.25262 50.787 3.25262 49.7659C3.25262 48.8396 3.34747 47.2606 1.67354 47.2606V47.6344V47.6288ZM1.67354 51.9922V52.3661C0.0944675 52.3661 0.189324 50.787 0.189324 49.7659C0.189324 48.8396 0.0944675 47.2606 1.67354 47.2606V47.6344C0.652445 47.6344 0.652445 48.5606 0.652445 49.7715C0.652445 51.0715 0.652445 51.9978 1.67354 51.9978V51.9922Z" fill="#061545"/>
<path fill-rule="evenodd" clip-rule="evenodd" d="M5.75798 49.95C6.40523 49.95 6.68422 50.3238 6.68422 50.8762C6.68422 51.6183 6.40523 51.8973 5.75798 51.8973V52.2712H5.85284C6.6898 52.2712 7.05807 51.8081 7.05807 50.8762C7.05807 49.7603 6.41081 49.5762 5.75798 49.5762V49.95ZM5.75798 47.7237V47.3498H6.68422V47.7237H5.75798ZM4.83174 49.95V51.8973H5.75798V52.2712H4.36304V47.3498H5.75798V47.7237H4.83174V49.5817H5.75798V49.9556H4.83174V49.95Z" fill="#061545"/>
<path fill-rule="evenodd" clip-rule="evenodd" d="M8.07959 47.3498H8.54271L8.44786 51.9029H10.3059V47.3498H10.769V51.9029H12.5322V47.3498H13.0009V51.9029H13.2744V53.3871H12.8112V52.2712H8.07959V47.3498Z" fill="#061545"/>
<path fill-rule="evenodd" clip-rule="evenodd" d="M14.2954 47.3498V52.2712H16.6166V51.9029H14.7641V49.95H16.4325V49.5817H14.7641V47.7237H16.5273V47.3498H14.2954Z" fill="#061545"/>
<path fill-rule="evenodd" clip-rule="evenodd" d="M20.0537 48.5551C20.0537 47.3498 19.4064 47.3498 18.9377 47.3498H18.8428V47.7237C19.306 47.7237 19.585 47.7237 19.585 48.6499C19.585 49.392 19.306 49.5762 18.8428 49.5762V49.95C19.7691 49.95 20.0481 49.4869 20.0481 48.5551H20.0537ZM18.8484 47.3498V47.7237H18.0115V49.5817H18.8484V49.9556H18.0115V52.2768H17.5483L17.6432 47.3554H18.8484V47.3498Z" fill="#061545"/>
<path fill-rule="evenodd" clip-rule="evenodd" d="M22.4697 47.6288C23.5857 47.6288 23.4908 48.5551 23.4908 49.7659C23.4908 51.066 23.4908 51.9922 22.4697 51.9922V52.3661C24.0488 52.3661 23.9539 50.787 23.9539 49.7659C23.9539 48.8396 24.0488 47.2606 22.4697 47.2606V47.6344V47.6288ZM22.4697 51.9922V52.3661C20.7958 52.3661 20.8906 50.787 20.8906 49.7659C20.8906 48.8396 20.7958 47.2606 22.4697 47.2606V47.6344C21.3538 47.6344 21.3538 48.5606 21.3538 49.7715C21.3538 51.0715 21.3538 51.9978 22.4697 51.9978V51.9922Z" fill="#061545"/>
<path fill-rule="evenodd" clip-rule="evenodd" d="M25.0697 49.7659C25.0697 48.8396 24.9748 47.2606 26.5539 47.2606C27.854 47.2606 27.854 48.3765 27.854 48.6555H27.3909C27.3909 48.0975 27.2067 47.6344 26.5539 47.6344C25.5328 47.6344 25.5328 48.5606 25.5328 49.7715C25.5328 51.0715 25.438 51.9978 26.5539 51.9978C27.1119 51.9978 27.3909 51.5347 27.3909 50.8818H27.854C27.854 51.2557 27.7591 52.3661 26.5539 52.3661C24.9748 52.3661 25.0697 50.787 25.0697 49.7659Z" fill="#061545"/>
<path fill-rule="evenodd" clip-rule="evenodd" d="M28.7805 49.7659C28.7805 48.8396 28.6857 47.2606 30.3596 47.2606C31.6597 47.2606 31.5648 48.3765 31.5648 48.6555H31.1017C31.1966 48.0975 30.9176 47.6344 30.3596 47.6344C29.2436 47.6344 29.2436 48.5606 29.2436 49.7715C29.2436 51.0715 29.2436 51.9978 30.3596 51.9978C30.9176 51.9978 31.1017 51.5347 31.1017 50.8818H31.5648C31.5648 51.2557 31.5648 52.3661 30.3596 52.3661C28.6857 52.3661 28.7805 50.787 28.7805 49.7659Z" fill="#061545"/>
<path fill-rule="evenodd" clip-rule="evenodd" d="M32.6802 52.2712V47.3498H33.1433V51.3449L35.0962 47.3498H35.5593V52.2712H35.0962V48.2816L33.1433 52.2712H32.6802Z" fill="#061545"/>
<path fill-rule="evenodd" clip-rule="evenodd" d="M37.6018 46.1446C37.6966 46.5184 38.1597 46.6077 38.3439 46.6077C38.528 46.6077 38.9911 46.5128 39.086 46.1446H39.365C39.365 46.7025 38.807 46.8867 38.3439 46.8867C37.97 46.8867 37.3228 46.7025 37.3228 46.1446H37.6018ZM39.2757 52.2712V48.276L37.3284 52.2712H36.8652V47.3498H37.3284V51.3449L39.2757 47.3498H39.7388V52.2712H39.2757Z" fill="#061545"/>
<path fill-rule="evenodd" clip-rule="evenodd" d="M40.8491 49.7659C40.8491 48.8396 40.7543 47.2606 42.4282 47.2606C43.7283 47.2606 43.6334 48.3765 43.6334 48.6555H43.1703C43.1703 48.0975 42.9862 47.6344 42.4282 47.6344C41.3122 47.6344 41.3122 48.5606 41.3122 49.7715C41.3122 51.0715 41.3122 51.9978 42.4282 51.9978C42.9862 51.9978 43.1703 51.5347 43.1703 50.8818H43.6334C43.6334 51.2557 43.5386 52.3661 42.4282 52.3661C40.7543 52.3661 40.8491 50.787 40.8491 49.7659Z" fill="#061545"/>
<path fill-rule="evenodd" clip-rule="evenodd" d="M44.7498 52.2712L44.8446 47.3498H45.2129V49.5817L47.0709 47.3498H47.5341L45.6816 49.671L47.6289 52.2712H47.0709L45.2129 49.7659V52.2712H44.7498Z" fill="#061545"/>
<path fill-rule="evenodd" clip-rule="evenodd" d="M50.5078 50.6029H49.7657V50.9767H50.6027L50.9765 52.2768H51.4397L50.0447 47.3554H49.7657V47.8186L50.5078 50.6029ZM49.7657 50.6029V50.9767H48.9288L48.5549 52.2768H48.0918L49.4867 47.3554H49.7657V47.8186L49.0236 50.6029H49.7657Z" fill="#061545"/>
<path fill-rule="evenodd" clip-rule="evenodd" d="M54.3133 52.2712V49.8552H53.4764V49.4813H54.3133V47.7181H53.4764V47.3443H54.7764V52.2656H54.3133V52.2712ZM53.4764 49.8552V49.4813C52.9184 49.4813 52.6394 49.2972 52.6394 48.4602C52.6394 47.813 52.9184 47.7181 53.3815 47.7181H53.4764V47.3443H53.3815C52.3604 47.3443 52.1763 47.6233 52.1763 48.5495C52.1763 49.1075 52.2711 49.5706 52.9184 49.6655C52.2711 49.8496 52.1763 49.9444 52.1763 51.7076V52.2656H52.5501C52.645 52.1708 52.645 51.3394 52.645 51.0604C52.645 50.8763 52.4608 49.8552 53.4819 49.8552H53.4764Z" fill="#061545"/>
<path fill-rule="evenodd" clip-rule="evenodd" d="M59.3296 47.6288C60.3507 47.6288 60.3507 48.5551 60.3507 49.7659C60.3507 51.066 60.3507 51.9922 59.3296 51.9922V52.3661C60.9086 52.3661 60.8138 50.787 60.8138 49.7659C60.8138 48.8396 60.9086 47.2606 59.3296 47.2606V47.6344V47.6288ZM59.3296 51.9922V52.3661C57.6556 52.3661 57.7505 50.787 57.7505 49.7659C57.7505 48.8396 57.6556 47.2606 59.3296 47.2606V47.6344C58.2136 47.6344 58.2136 48.5606 58.2136 49.7715C58.2136 51.0715 58.2136 51.9978 59.3296 51.9978V51.9922Z" fill="#061545"/>
<path fill-rule="evenodd" clip-rule="evenodd" d="M63.3189 49.95C63.9661 49.95 64.2451 50.3238 64.2451 50.8762C64.2451 51.6183 63.9661 51.8973 63.3189 51.8973V52.2712H63.4137C64.2507 52.2712 64.7138 51.8081 64.7138 50.8762C64.7138 49.7603 63.9717 49.5762 63.3189 49.5762V49.95ZM63.3189 47.7237V47.3498H64.2451V47.7237H63.3189ZM62.3926 49.95V51.8973H63.3189V52.2712H62.0188V47.3498H63.3189V47.7237H62.3926V49.5817H63.3189V49.9556H62.3926V49.95Z" fill="#061545"/>
<path fill-rule="evenodd" clip-rule="evenodd" d="M65.6404 47.3498H66.1035V51.9029H67.8723V47.3498H68.3354V51.9029H70.0986V47.3498H70.5617V51.9029H70.9356V53.3871H70.4669V52.2712H65.6404V47.3498Z" fill="#061545"/>
<path fill-rule="evenodd" clip-rule="evenodd" d="M74.1828 47.3498V47.7237H72.3247V49.5817H74.0879V49.95H72.3247V51.9029H74.1828V52.2712H71.8616V47.3498H74.1828Z" fill="#061545"/>
<path fill-rule="evenodd" clip-rule="evenodd" d="M75.1092 49.7659C75.1092 48.8396 75.0144 47.2606 76.6883 47.2606C77.9884 47.2606 77.8936 48.3765 77.8936 48.6555H77.4304C77.4304 48.0975 77.2463 47.6344 76.6883 47.6344C75.5724 47.6344 75.5724 48.5606 75.5724 49.7715C75.5724 51.0715 75.5724 51.9978 76.5935 51.9978C77.2407 51.9978 77.4304 51.5347 77.4304 50.8818H77.8936C77.8936 51.2557 77.7987 52.3661 76.5935 52.3661C75.0144 52.3661 75.1092 50.787 75.1092 49.7659Z" fill="#061545"/>
<path fill-rule="evenodd" clip-rule="evenodd" d="M79.8463 47.7237H78.6411V47.3498H81.5203V47.7237H80.3095L80.2202 52.2712H79.8463V47.7237Z" fill="#061545"/>
<path fill-rule="evenodd" clip-rule="evenodd" d="M83.6517 47.7237C84.0255 47.7237 84.4886 47.7237 84.4886 48.5607C84.4886 49.1186 84.3045 49.5818 83.6517 49.5818V49.9556C84.4886 49.9556 84.5779 50.5136 84.5779 50.9767C84.5779 51.624 84.2989 51.9029 83.6517 51.9029V52.2768H83.7465C84.5835 52.2768 85.0466 51.8137 85.0466 50.8819C85.0466 50.3239 84.8625 49.8608 84.2096 49.6766C84.8569 49.4925 84.9517 49.1186 84.9517 48.5607C84.9517 47.6344 84.4886 47.3554 83.7465 47.3554H83.6517V47.7293V47.7237ZM82.8147 49.5818H83.6517V49.9556H82.8147V51.9029H83.6517V52.2768H82.3516V47.3554H83.6517V47.7293H82.8147V49.5873V49.5818Z" fill="#061545"/>
<path fill-rule="evenodd" clip-rule="evenodd" d="M86.1626 47.3498V52.2712H88.4782V51.9029H86.5309V49.95H88.2941V49.5817H86.5309L86.6257 47.7237H88.3889V47.3498H86.1626Z" fill="#061545"/>
<path fill-rule="evenodd" clip-rule="evenodd" d="M89.5051 52.2712V47.3498H89.9682V49.5817H91.9156V47.3498H92.3787V52.2712H91.9156V49.95H89.9682V52.2712H89.5051Z" fill="#061545"/>
<path fill-rule="evenodd" clip-rule="evenodd" d="M93.6787 52.2712V47.3498H94.1474V49.5817H96.0948V47.3498H96.5579V52.2712H96.0948V49.95H94.1474L94.0526 52.2712H93.6787Z" fill="#061545"/>
<path fill-rule="evenodd" clip-rule="evenodd" d="M99.8106 50.6029H99.0685V50.9767H99.9054L100.279 52.2768H100.742L99.3475 47.3554H99.0685V47.9134L99.8106 50.6084V50.6029ZM99.0685 50.6029V50.9767H98.2315L97.8577 52.2768H97.3945L98.7895 47.3554H99.0685V47.9134V47.8186L98.3264 50.6029H99.0685Z" fill="#061545"/>
<path fill-rule="evenodd" clip-rule="evenodd" d="M103.616 52.2712V49.8552H102.779V49.4813H103.616V47.7181H102.779V47.3443H104.079V52.2656H103.616V52.2712ZM102.779 49.8552V49.4813C102.132 49.4813 101.853 49.2972 101.853 48.4602C101.948 47.813 102.132 47.7181 102.69 47.7181H102.785V47.3443H102.69C101.669 47.3443 101.485 47.6233 101.485 48.5495C101.485 49.1075 101.58 49.5706 102.227 49.6655C101.485 49.8496 101.485 49.9444 101.485 51.7076C101.485 51.8918 101.485 52.0815 101.39 52.2656H101.853C101.853 52.1708 101.948 51.3394 101.948 51.0604C101.948 50.8763 101.764 49.8552 102.785 49.8552H102.779Z" fill="#061545"/>
<path fill-rule="evenodd" clip-rule="evenodd" d="M108.538 47.6288H108.632C109.654 47.6288 109.654 48.5551 109.654 49.7659C109.654 51.066 109.654 51.9922 108.538 51.9922V52.3661C110.211 52.3661 110.117 50.787 110.117 49.7659C110.117 48.8396 110.211 47.2606 108.632 47.2606H108.538V47.6344V47.6288ZM108.538 51.9922V52.3661C106.958 52.3661 107.053 50.787 107.053 49.7659C107.053 48.8396 106.958 47.2606 108.538 47.2606V47.6344C107.516 47.6344 107.516 48.5606 107.516 49.7715C107.516 51.0715 107.516 51.9978 108.538 51.9978V51.9922Z" fill="#061545"/>
<path fill-rule="evenodd" clip-rule="evenodd" d="M113.269 48.6499C113.269 49.392 112.99 49.5762 112.527 49.5762V49.95C113.364 49.95 113.732 49.4869 113.732 48.5551C113.732 47.3498 113.085 47.3498 112.616 47.3498H112.522V47.7237C112.895 47.7237 113.264 47.7237 113.264 48.6499H113.269ZM112.527 49.5762V49.95H111.69V52.2712H111.227V47.3498H112.527V47.7237H111.69V49.5817H112.527V49.5762Z" fill="#061545"/>
<path fill-rule="evenodd" clip-rule="evenodd" d="M114.664 52.2712H115.127V47.7237H116.801V47.3498H114.664V52.2712Z" fill="#061545"/>
<path fill-rule="evenodd" clip-rule="evenodd" d="M118.374 50.6029H119.116L118.374 47.8186V47.3554H118.653L120.048 52.2768H119.585L119.211 50.9767H118.374V50.6029ZM118.374 47.8186V47.3554H118.095L116.7 52.2768H117.164L117.443 50.9767H118.369V50.6029H117.627L118.369 47.8186H118.374Z" fill="#061545"/>
<path fill-rule="evenodd" clip-rule="evenodd" d="M120.885 52.2712V47.3498H121.348V49.5817H123.296V47.3498H123.764V52.2712H123.296V49.95H121.348V52.2712H120.885Z" fill="#061545"/>
<path fill-rule="evenodd" clip-rule="evenodd" d="M124.97 52.2712L125.059 47.3498H125.433V51.3449L127.475 47.3498H127.849V52.2712H127.475V48.2816L125.433 52.2712H124.97Z" fill="#061545"/>
<path fill-rule="evenodd" clip-rule="evenodd" d="M129.98 49.4869C130.817 49.5817 131.096 49.2079 131.096 48.4658C131.096 47.9078 130.912 47.6288 130.354 47.6288C129.796 47.6288 129.517 48.0027 129.612 48.5551H129.149C129.054 47.8129 129.523 47.255 130.265 47.255C131.102 47.255 131.565 47.534 131.565 48.4602C131.565 49.0182 131.47 49.5762 130.823 49.6654V49.7603C131.47 49.7603 131.66 50.3183 131.66 50.9655C131.66 51.8918 131.197 52.3605 130.36 52.3605C129.523 52.3605 128.965 51.9866 129.06 51.0604H129.523C129.428 51.6184 129.707 51.9866 130.265 51.9866C131.007 51.9866 131.191 51.6128 131.191 51.0604C131.191 50.2234 130.912 49.8551 129.986 49.9444V49.4813L129.98 49.4869Z" fill="#061545"/>
<path fill-rule="evenodd" clip-rule="evenodd" d="M134.071 50.6028H134.813L134.071 47.9078V47.3498H134.35L135.745 52.2712H135.281L134.908 50.9711H134.071V50.5972V50.6028ZM134.071 47.8185V47.9134V47.3554H133.792L132.307 52.2768H132.865L133.144 50.9767H134.071V50.6028H133.234L133.976 47.8185H134.071Z" fill="#061545"/>
<path fill-rule="evenodd" clip-rule="evenodd" d="M136.576 47.3498H137.039V51.9029H138.986V47.3498H139.455V51.9029H139.734V53.3871H139.265V52.2712H136.576V47.3498Z" fill="#061545"/>
<path fill-rule="evenodd" clip-rule="evenodd" d="M140.66 52.2712L140.755 47.3498H141.124V51.3449L143.166 47.3498H143.54V52.2712H143.166V48.2816H143.076L141.124 52.2712H140.66Z" fill="#061545"/>
<path fill-rule="evenodd" clip-rule="evenodd" d="M146.882 49.4869H146.045V49.8607H146.882V52.2768H147.345V47.3554H146.045V47.7292H146.882V49.4925V49.4869ZM146.045 49.4869V49.8607C145.118 49.8607 145.208 50.8818 145.208 51.0659C145.208 51.3449 145.208 52.1819 145.113 52.2712H144.739V51.7132C144.739 49.95 144.834 49.8551 145.481 49.671C144.834 49.5761 144.739 49.113 144.739 48.5551C144.739 47.6288 145.018 47.3498 145.944 47.3498H146.039V47.7237H145.944C145.481 47.7237 145.202 47.8185 145.202 48.4658C145.202 49.3027 145.481 49.4869 146.039 49.4869H146.045Z" fill="#061545"/>
<path fill-rule="evenodd" clip-rule="evenodd" d="M150.313 52.2712V47.3498H151.15L152.545 51.8081H152.635L154.03 47.3498H154.772V52.2712H154.309V47.7237L152.824 52.2712H152.356L150.782 47.7237V52.2712H150.313Z" fill="#061545"/>
<path fill-rule="evenodd" clip-rule="evenodd" d="M158.019 50.6029H157.277V50.9767H158.203L158.482 52.2768H158.945L157.55 47.3554H157.271V47.9134L158.013 50.6084L158.019 50.6029ZM157.277 50.6029V50.9767H156.44L156.066 52.2768H155.603L156.998 47.3554H157.277V47.9134V47.8186L156.535 50.6029H157.277Z" fill="#061545"/>
<path fill-rule="evenodd" clip-rule="evenodd" d="M162.851 52.2712H162.477V47.7237H160.809V49.2079C160.809 50.8818 160.809 51.5291 160.346 52.087C160.067 52.366 159.883 52.366 159.699 52.366C159.515 52.366 159.42 52.2712 159.42 52.2712V51.8973C159.42 51.8973 159.515 51.9922 159.604 51.9922C159.693 51.9922 159.883 51.8973 159.978 51.8081C160.441 51.1608 160.352 50.6028 160.352 48.7448L160.446 47.3498H162.862V52.2712H162.851Z" fill="#061545"/>
<path fill-rule="evenodd" clip-rule="evenodd" d="M165.635 47.6288C166.657 47.6288 166.657 48.5551 166.657 49.7659C166.657 51.066 166.657 51.9922 165.635 51.9922V52.3661C167.215 52.3661 167.12 50.787 167.12 49.7659C167.12 48.8396 167.215 47.2606 165.635 47.2606V47.6344V47.6288ZM165.635 51.9922V52.3661C163.962 52.3661 164.056 50.787 164.056 49.7659C164.056 48.8396 163.962 47.2606 165.635 47.2606V47.6344C164.52 47.6344 164.52 48.5606 164.52 49.7715C164.52 51.0715 164.52 51.9978 165.635 51.9978V51.9922Z" fill="#061545"/>
<path fill-rule="evenodd" clip-rule="evenodd" d="M168.325 47.3498H170.462V47.7237H168.699V52.2712H168.325V47.3498Z" fill="#061545"/>
<path fill-rule="evenodd" clip-rule="evenodd" d="M172.694 47.6288H172.789C173.81 47.6288 173.81 48.5551 173.81 49.7659C173.81 51.066 173.81 51.9922 172.694 51.9922V52.3661C174.368 52.3661 174.273 50.787 174.273 49.7659C174.273 48.8396 174.368 47.2606 172.789 47.2606H172.694V47.6344V47.6288ZM172.694 51.9922V52.3661C171.115 52.3661 171.21 50.787 171.21 49.7659C171.21 48.8396 171.115 47.2606 172.694 47.2606V47.6344C171.673 47.6344 171.673 48.5606 171.673 49.7715C171.673 51.0715 171.673 51.9978 172.694 51.9978V51.9922Z" fill="#061545"/>
<path fill-rule="evenodd" clip-rule="evenodd" d="M177.241 52.2712L177.33 47.3498H177.704V51.3449L179.747 47.3498H180.12V52.2712H179.747V48.2816H179.652L177.704 52.2712H177.241Z" fill="#061545"/>
<path fill-rule="evenodd" clip-rule="evenodd" d="M183.184 49.7659C183.184 48.8396 183 47.2606 184.668 47.2606C185.968 47.2606 185.873 48.3765 185.873 48.6555H185.41C185.505 48.0975 185.315 47.6344 184.668 47.6344C183.552 47.6344 183.552 48.5606 183.552 49.7715C183.552 51.0715 183.552 51.9978 184.668 51.9978C185.226 51.9978 185.505 51.5347 185.505 50.8818H185.968C185.968 51.2557 185.873 52.3661 184.668 52.3661C182.994 52.3661 183.184 50.787 183.184 49.7659Z" fill="#061545"/>
<path fill-rule="evenodd" clip-rule="evenodd" d="M189.031 48.6499C189.031 49.392 188.752 49.5762 188.194 49.5762V49.95H188.289C189.126 49.95 189.495 49.4869 189.495 48.5551C189.495 47.3498 188.752 47.3498 188.379 47.3498H188.194V47.7237C188.658 47.7237 189.031 47.7237 189.031 48.6499ZM188.194 49.5762V49.95H187.452L187.357 52.2712H186.984V47.3498H188.189V47.7237H187.447V49.5817H188.189L188.194 49.5762Z" fill="#061545"/>
<path fill-rule="evenodd" clip-rule="evenodd" d="M192.652 47.3498V47.7237H190.889L190.794 49.5817H192.558V49.95H190.794V51.9029H192.747V52.2712H190.426V47.3498H192.652Z" fill="#061545"/>
<path fill-rule="evenodd" clip-rule="evenodd" d="M195.253 47.7237H196.458V51.9029H195.253V52.2768H196.737V53.3928H197.2V51.9085H196.826L196.921 47.361H195.247V47.7349L195.253 47.7237ZM194.137 51.9029H195.253V52.2768H193.769V53.3928H193.305V51.9085H193.679C193.958 51.6295 194.237 50.9823 194.327 50.5136C194.511 49.7715 194.511 49.2135 194.511 47.7293V47.3554H195.253V47.7293H194.974V47.9134C194.974 49.1186 194.879 49.8608 194.79 50.4187C194.606 51.066 194.416 51.7188 194.142 51.9029H194.137Z" fill="#061545"/>
<path fill-rule="evenodd" clip-rule="evenodd" d="M198.132 52.2712V47.3498H198.595V49.5817H200.542V47.3498H201.011V52.2712H200.542V49.95H198.595V52.2712H198.132Z" fill="#061545"/>
<path fill-rule="evenodd" clip-rule="evenodd" d="M204.538 47.3498V47.7237H202.68V49.5817H204.443V49.95H202.68V51.9029H204.632V52.2712H202.311V47.3498H204.538Z" fill="#061545"/>
<path fill-rule="evenodd" clip-rule="evenodd" d="M205.653 47.3498H207.785V47.7237H206.116L206.022 52.2712H205.653V47.3498Z" fill="#061545"/>
<path fill-rule="evenodd" clip-rule="evenodd" d="M210.106 47.6288C211.127 47.6288 211.127 48.5551 211.127 49.7659C211.127 51.066 211.127 51.9922 210.106 51.9922V52.3661C211.685 52.3661 211.59 50.787 211.59 49.7659C211.59 48.8396 211.685 47.2606 210.106 47.2606V47.6344V47.6288ZM210.011 51.9922H210.106V52.3661H210.011C208.432 52.3661 208.527 50.787 208.527 49.7659C208.527 48.8396 208.432 47.2606 210.106 47.2606V47.6344C208.99 47.6344 208.99 48.5606 208.99 49.7715C208.99 51.0715 208.99 51.9978 210.011 51.9978V51.9922Z" fill="#061545"/>
<path fill-rule="evenodd" clip-rule="evenodd" d="M214.564 52.2712L214.659 47.3498H217.444V52.2712H217.07V47.7237H215.028V52.2712H214.564Z" fill="#061545"/>
<path fill-rule="evenodd" clip-rule="evenodd" d="M220.786 48.6499C220.786 49.392 220.412 49.5762 219.949 49.5762V49.95H220.044C220.881 49.95 221.16 49.4869 221.16 48.5551C221.16 47.3498 220.512 47.3498 220.139 47.3498H219.954V47.7237C220.418 47.7237 220.791 47.7237 220.791 48.6499H220.786ZM219.949 49.5762V49.95H219.112V52.2712H218.738V47.3498H219.943V47.7237H219.106V49.5817H219.943L219.949 49.5762Z" fill="#061545"/>
<path fill-rule="evenodd" clip-rule="evenodd" d="M224.407 47.3498V47.7237H222.549V49.5817H224.312V49.95H222.549V51.9029H224.496V52.2712H222.086L222.175 47.3498H224.407Z" fill="#061545"/>
<path fill-rule="evenodd" clip-rule="evenodd" d="M227.007 47.7237H228.213V51.9029H227.007V52.2768H228.492V53.3928H228.955V51.9085H228.581V47.361H227.002V47.7349L227.007 47.7237ZM225.891 51.9029H227.007V52.2768H225.523V53.3928H225.06V51.9085H225.434C225.618 51.6295 225.897 50.9823 226.081 50.5136C226.265 49.7715 226.265 49.2135 226.265 47.7293V47.3554H227.007V47.7293H226.728V47.9134C226.728 49.1186 226.634 49.8608 226.544 50.4187C226.36 51.066 226.17 51.7188 225.897 51.9029H225.891Z" fill="#061545"/>
<path fill-rule="evenodd" clip-rule="evenodd" d="M229.881 52.2712V47.3498H232.76V52.2712H232.297V47.7237H230.35V52.2712H229.881Z" fill="#061545"/>
<path fill-rule="evenodd" clip-rule="evenodd" d="M236.013 48.6499C236.013 49.392 235.734 49.5762 235.271 49.5762H235.176V49.95H235.271C236.108 49.95 236.476 49.4869 236.476 48.5551C236.476 47.3498 235.734 47.3498 235.36 47.3498H235.176V47.7237H235.271C235.645 47.7237 236.013 47.7237 236.013 48.6499ZM235.176 49.5762V49.95H234.434V52.2712H233.971V47.3498H235.176V47.7237H234.434V49.5817H235.176V49.5762Z" fill="#061545"/>
<path fill-rule="evenodd" clip-rule="evenodd" d="M237.403 52.2712V47.3498H237.866V51.3449L239.819 47.3498H240.282V52.2712H239.819V48.2816L237.866 52.2712H237.403Z" fill="#061545"/>
<path fill-rule="evenodd" clip-rule="evenodd" d="M241.487 52.2712L241.581 47.3498H241.955V49.5817H243.997V47.3498H244.366V52.2712H243.997V49.95H241.955V52.2712H241.487Z" fill="#061545"/>
<path fill-rule="evenodd" clip-rule="evenodd" d="M245.666 52.2712V47.3498H246.129V51.3449L248.082 47.3498H248.545V52.2712H248.082V48.2816L246.129 52.2712H245.666Z" fill="#061545"/>
<path fill-rule="evenodd" clip-rule="evenodd" d="M249.845 52.2712V47.3498H250.587L252.072 51.8081L253.561 47.3498H254.303V52.2712H253.835V47.7237L252.351 52.2712H251.793L250.308 47.7237V52.2712H249.845Z" fill="#061545"/>
<path fill-rule="evenodd" clip-rule="evenodd" d="M256.809 50.6029H257.551L256.809 47.8186V47.3554H257.088L258.483 52.2768H258.02L257.646 50.9767H256.809V50.6029ZM256.809 47.8186V47.3554H256.53L255.135 52.2768H255.598C255.598 52.2768 255.972 50.9767 255.877 50.9767H256.803V50.6029H256.061L256.803 47.8186H256.809Z" fill="#061545"/>
<path fill-rule="evenodd" clip-rule="evenodd" d="M259.777 47.7237H258.572V47.3498H261.451V47.7237H260.246V52.2712H259.777V47.7237Z" fill="#061545"/>
<path fill-rule="evenodd" clip-rule="evenodd" d="M262.288 47.3498V52.2712H264.609V51.9029H262.751V49.95H264.514V49.5817H262.751V47.7237H264.609V47.3498H262.288Z" fill="#061545"/>
<path fill-rule="evenodd" clip-rule="evenodd" d="M268.783 52.2712H268.32V47.7237H266.741V49.2079C266.741 50.8818 266.741 51.5291 266.183 52.087C265.999 52.366 265.72 52.366 265.536 52.366C265.352 52.366 265.257 52.2712 265.257 52.2712V51.8973C265.257 51.8973 265.352 51.9922 265.441 51.9922C265.53 51.9922 265.72 51.8973 265.904 51.8081C266.278 51.1608 266.278 50.6028 266.278 48.7448V47.3498H268.783V52.2712Z" fill="#061545"/>
<path fill-rule="evenodd" clip-rule="evenodd" d="M272.125 50.9711C272.125 51.8081 271.662 51.8973 271.288 51.8973V52.2712H271.383C271.757 52.2712 272.499 52.2712 272.499 51.0659C272.499 49.95 272.125 49.5817 271.294 49.5817V49.9556C271.757 49.9556 272.131 50.1397 272.131 50.9767L272.125 50.9711ZM271.288 51.8973V52.2712H270.083V47.3498H270.546L270.451 49.5762H271.288V49.95H270.451V51.8973H271.288Z" fill="#061545"/>
<path fill-rule="evenodd" clip-rule="evenodd" d="M273.336 49.7659C273.336 48.8396 273.241 47.2606 274.915 47.2606C276.215 47.2606 276.12 48.3765 276.12 48.6555H275.657C275.657 48.0975 275.473 47.6344 274.915 47.6344C273.799 47.6344 273.799 48.5606 273.799 49.7715C273.799 51.0715 273.799 51.9978 274.915 51.9978C275.473 51.9978 275.657 51.5347 275.657 50.8818H276.12C276.12 51.2557 276.121 52.3661 274.915 52.3661C273.241 52.3661 273.336 50.787 273.336 49.7659Z" fill="#061545"/>
<path fill-rule="evenodd" clip-rule="evenodd" d="M278.068 47.7237H276.863V47.3498H279.742V47.7237H278.536V52.2712H278.068V47.7237Z" fill="#061545"/>
<path fill-rule="evenodd" clip-rule="evenodd" d="M281.879 47.7237C282.253 47.7237 282.716 47.7237 282.716 48.5607C282.716 49.1186 282.532 49.5818 281.879 49.5818V49.9556H281.974C282.716 49.9556 282.811 50.5136 282.811 50.9767C282.811 51.624 282.532 51.9029 281.884 51.9029V52.2768H281.979C282.816 52.2768 283.279 51.8137 283.279 50.8819C283.279 50.3239 283.095 49.8608 282.442 49.6766C283.09 49.4925 283.184 49.1186 283.184 48.5607C283.184 47.6344 282.811 47.3554 281.979 47.3554H281.884V47.7293L281.879 47.7237ZM281.042 49.5818H281.879V49.9556H281.042V51.9029H281.879V52.2768H280.579V47.3554H281.879V47.7293H281.042V49.5873V49.5818Z" fill="#061545"/>
<path fill-rule="evenodd" clip-rule="evenodd" d="M285.589 50.6028H286.426L285.589 47.9078V47.3498H285.868L287.263 52.2712H286.89L286.516 50.9711H285.589V50.5972V50.6028ZM285.589 47.8185V47.9134V47.3554H285.31L283.916 52.2768H284.379L284.752 50.9767H285.589V50.6028H284.847L285.589 47.8185Z" fill="#061545"/>
<path fill-rule="evenodd" clip-rule="evenodd" d="M71.2146 22.9327C72.7937 22.9327 74.5569 23.3959 76.0411 24.9749C77.4361 26.4592 78.5464 28.5962 78.5464 31.9385C78.5464 33.8858 78.2674 36.207 76.6884 38.1599C75.7621 39.181 74.2723 40.3863 71.767 40.3863H71.209V41.3125C74.8303 41.3125 77.0566 39.6386 78.3567 38.1544C79.7517 36.5753 80.862 34.4382 80.862 31.2857C80.862 29.2435 80.3989 26.4592 78.0777 24.417C75.9407 22.5589 73.4354 22.0009 71.2983 22.0009H71.2035V22.9272L71.2146 22.9327ZM63.9721 31.0122C63.9721 34.1704 64.8983 36.3019 66.1091 37.6968C67.6882 39.6442 69.6355 40.297 71.2146 40.3918V41.3181H71.1198C69.2617 41.3181 66.1035 40.9442 63.8772 38.1599C62.2981 36.3019 61.6509 33.8914 61.6509 31.6595C61.6509 29.9856 62.0247 27.7592 63.7879 25.6222C64.9932 23.9483 67.2251 22.0958 71.2146 22.0009V22.9272C71.2146 22.8323 71.1198 22.8323 71.1198 22.8323C69.7248 22.8323 67.4985 23.2061 65.9194 24.9694C64.5245 26.4536 63.9721 28.4958 63.9721 31.0067V31.0122Z" fill="#061545"/>
<path fill-rule="evenodd" clip-rule="evenodd" d="M98.879 24.0488C98.879 23.8647 98.879 23.6749 98.7842 23.5857C98.6893 23.4015 98.5052 23.4015 98.321 23.4015H89.2204C89.0363 23.4015 88.8466 23.4015 88.7573 23.5857C88.5732 23.6805 88.5732 23.8647 88.5732 24.0488V36.7707C88.5732 37.2338 88.668 39.276 88.8522 39.9288C88.947 40.3919 89.226 40.5761 89.9681 40.6709H90.342C90.621 40.6709 90.9892 40.5761 90.9892 40.8551C90.9892 41.0392 90.7102 41.0392 90.7102 41.0392H90.5261C90.2471 41.0392 89.8788 40.9443 89.5999 40.9443H85.6996C85.1416 41.0392 85.0523 41.0392 84.9575 41.0392C84.7734 41.0392 84.7734 40.8551 84.7734 40.8551C84.7734 40.6709 84.8682 40.6709 85.0523 40.6709H85.4262C85.9842 40.5761 86.1683 40.2971 86.2632 39.9288C86.358 39.4657 86.5421 38.6287 86.5421 36.2127V25.812C86.5421 25.533 86.5421 24.2329 86.4473 23.7698C86.4473 23.5857 86.3524 23.3067 86.1683 23.1225C85.8893 22.8436 85.521 22.8436 85.3313 22.7487H84.8682C84.8682 22.7487 84.6841 22.7487 84.6841 22.5646C84.6841 22.3804 84.8682 22.3804 84.9631 22.3804H85.8C86.1739 22.3804 87.1001 22.4753 87.9371 22.4753H100.19C100.653 22.4753 101.211 22.4753 102.327 22.3804H102.511C102.696 22.3804 102.79 22.4753 102.79 22.5646C102.79 22.6538 102.696 22.7487 102.511 22.7487H102.327C101.68 22.8436 101.401 22.9328 101.211 23.396C101.117 23.5801 101.027 23.9539 100.932 25.0699V36.2127C100.932 36.8599 100.932 39.1811 101.211 39.9288C101.306 40.3919 101.585 40.5761 102.327 40.6709H102.701C102.98 40.6709 103.348 40.5761 103.348 40.8551C103.348 41.0392 103.164 41.0392 103.069 41.0392H102.975C102.601 41.0392 102.232 40.9443 101.859 40.9443H98.0532C97.5901 41.0392 97.406 41.0392 97.406 41.0392C97.2218 41.0392 97.127 40.8551 97.127 40.8551C97.127 40.6709 97.3111 40.6709 97.406 40.6709H97.8691C98.3322 40.5761 98.5163 40.2971 98.6112 39.9288C98.8902 39.1867 98.8902 37.7025 98.8902 36.8655V24.0544L98.879 24.0488Z" fill="#061545"/>
<path fill-rule="evenodd" clip-rule="evenodd" d="M116.522 22.9327C118.101 22.9327 119.864 23.3959 121.349 24.9749C122.744 26.4592 123.854 28.5962 123.765 31.9385C123.765 33.8858 123.486 36.207 121.907 38.1599C121.07 39.181 119.491 40.3863 117.08 40.3863H116.522V41.3125C120.143 41.3125 122.28 39.6386 123.581 38.1544C124.975 36.5753 126.181 34.4382 126.181 31.2857C126.181 29.2435 125.623 26.4592 123.302 24.417C121.259 22.5589 118.754 22.0009 116.522 22.0009V22.9272V22.9327ZM109.28 31.0122C109.185 34.1704 110.206 36.3019 111.322 37.6968C112.901 39.6442 114.943 40.297 116.522 40.3918V41.3181H116.338C114.575 41.3181 111.417 40.9442 109.095 38.1599C107.611 36.3019 106.869 33.8914 106.869 31.6595C106.869 29.9856 107.332 27.7592 109.006 25.6222C110.306 23.9483 112.533 22.0958 116.528 22.0009V22.9272C116.528 22.8323 116.433 22.8323 116.344 22.8323C114.949 22.8323 112.817 23.2061 111.238 24.9694C109.843 26.4536 109.291 28.4958 109.291 31.0067L109.28 31.0122Z" fill="#061545"/>
<path fill-rule="evenodd" clip-rule="evenodd" d="M132.118 25.9961C132.118 24.1381 132.023 23.5801 131.934 23.396C131.839 23.3011 131.56 22.838 130.913 22.7487H130.539C130.355 22.7487 129.981 22.7487 129.981 22.5646C129.981 22.4697 130.076 22.3804 130.26 22.3804H130.355C131.471 22.4753 132.118 22.4753 132.86 22.4753H134.16C134.718 22.3804 135.276 22.3804 135.923 22.3804C138.618 22.3804 139.913 23.0277 140.75 23.7754C141.676 24.7016 141.955 25.8176 141.955 26.7438C141.955 27.8598 141.771 29.4388 140.376 30.8282C139.076 32.2231 137.497 32.5914 135.733 32.5914H135.549C135.454 32.5914 135.175 32.5914 135.175 32.4073C135.175 32.2231 135.454 32.2231 135.549 32.2231H135.828C137.502 32.1283 138.986 31.2969 139.634 29.9968C140.008 29.3496 140.008 28.6019 140.008 28.0495C140.102 26.7494 139.823 25.4493 138.707 24.3334C137.502 23.2174 136.012 23.1281 135.549 23.1281H135.27C134.712 23.1281 134.154 23.1281 134.154 23.7754V36.2183C134.154 36.8655 134.154 39.1867 134.339 39.9344C134.523 40.3975 134.802 40.5816 135.544 40.6765H136.286C136.381 40.6765 136.47 40.6765 136.47 40.8606C136.47 41.1396 135.633 41.0448 135.265 40.9555H132.759C132.575 40.9555 131.459 40.9555 130.996 41.0503H130.533C130.349 40.9555 130.349 40.8662 130.349 40.8662C130.349 40.6821 130.444 40.6821 130.533 40.6821H130.812C131.275 40.5872 131.649 40.5872 131.833 39.94C131.928 39.661 132.112 38.9189 132.112 36.2238V26.0129L132.118 25.9961Z" fill="#061545"/>
<path fill-rule="evenodd" clip-rule="evenodd" d="M151.429 25.8119C151.524 25.8119 151.524 25.9068 151.613 25.996L153.935 32.6806C153.935 32.7754 153.935 32.8647 153.75 32.8647H151.429V33.7017H154.124C154.124 33.7017 154.308 33.7017 154.308 33.8858L156.63 39.9231C156.63 40.1073 156.63 40.3863 156.535 40.5704C156.44 40.6652 156.256 40.5704 156.256 40.7545C156.256 40.9387 156.535 40.9387 156.719 40.9387C156.998 40.9387 158.019 41.0335 158.393 41.0335H160.714C160.898 41.0335 161.361 41.0335 161.361 40.8494C161.361 40.7861 161.33 40.7248 161.266 40.6652H160.524C159.319 40.4811 158.85 39.5493 158.577 38.8072C158.203 38.0651 157.556 36.6701 154.772 29.2435C154.308 27.9434 153.845 26.7381 153.377 25.5273C153.003 24.6011 152.634 23.7641 152.355 22.8323C152.261 22.5533 151.982 21.9953 151.797 21.9953C151.613 21.9953 151.519 22.1795 151.424 22.4585V25.8007L151.429 25.8119ZM149.108 32.8703H151.429V33.7073H148.829C148.734 33.7073 148.645 33.7073 148.645 33.9863L147.25 38.3496C146.876 39.2759 146.876 39.6497 146.876 39.8339C146.876 40.576 147.523 40.6708 147.713 40.6708H147.992C147.992 40.6708 148.176 40.6708 148.176 40.855C148.176 41.0391 147.897 41.0391 147.802 41.0391C147.523 41.0391 147.155 40.9442 146.781 40.9442H145.576C143.902 40.9442 144.181 40.9442 143.255 41.0391H143.071C142.887 41.0391 142.792 40.9442 142.792 40.855C142.792 40.576 143.166 40.6708 143.534 40.6708C144.276 40.576 145.018 40.3918 145.76 38.3496L151.24 23.0276C151.334 22.8435 151.334 22.6537 151.424 22.4696V25.8119C151.329 25.8119 151.24 25.9068 151.24 25.996L149.013 32.6806C149.013 32.7754 148.918 32.8647 149.108 32.8647V32.8703Z" fill="#061545"/>
<path fill-rule="evenodd" clip-rule="evenodd" d="M170.557 25.9961C170.557 24.1381 170.462 23.5801 170.373 23.396C170.278 23.3011 170.094 22.838 169.352 22.7487H169.073C168.794 22.7487 168.425 22.7487 168.425 22.5646C168.425 22.4697 168.52 22.3804 168.704 22.3804H168.888C170.004 22.4753 170.562 22.4753 171.304 22.4753H172.699C173.257 22.3804 173.815 22.3804 174.373 22.3804C177.158 22.3804 178.458 23.0277 179.295 23.7754C180.132 24.7016 180.5 25.8176 180.5 26.7438C180.5 27.8598 180.221 29.4388 178.921 30.8282C177.526 32.2231 176.042 32.5914 174.278 32.5914H174.094C173.91 32.5914 173.631 32.5914 173.631 32.4073C173.631 32.2231 173.91 32.2231 174.094 32.2231H174.373C175.952 32.1283 177.437 31.2969 178.089 29.9968C178.463 29.3496 178.553 28.6019 178.553 28.0495C178.553 26.7494 178.368 25.4493 177.252 24.3334C175.952 23.2174 174.557 23.1281 174.094 23.1281H173.815C173.168 23.1281 172.699 23.1281 172.699 23.7754L172.605 36.2183C172.605 36.8655 172.605 39.1867 172.884 39.9344C172.978 40.3975 173.257 40.5816 173.999 40.6765H174.836C174.836 40.6765 175.021 40.6765 175.021 40.8606C175.021 41.1396 174.184 41.0448 173.72 40.9555H171.304C171.025 40.9555 170.004 40.9555 169.446 41.0503H169.073C168.888 40.9555 168.794 40.8662 168.794 40.8662C168.794 40.6821 168.888 40.6821 168.978 40.6821H169.257C169.72 40.5872 170.094 40.5872 170.278 39.94C170.373 39.661 170.557 38.9189 170.557 36.2238V26.0129V25.9961Z" fill="#061545"/>
<path fill-rule="evenodd" clip-rule="evenodd" d="M193.116 22.9327C194.695 22.9327 196.458 23.3959 197.942 24.9749C199.337 26.4592 200.447 28.5962 200.447 31.9385C200.447 33.8858 200.168 36.207 198.5 38.1599C197.663 39.181 196.084 40.3863 193.673 40.3863H193.116V41.3125C196.737 41.3125 198.963 39.6386 200.263 38.1544C201.658 36.5753 202.768 34.4382 202.768 31.2857C202.768 29.2435 202.211 26.4592 199.889 24.417C197.847 22.5589 195.342 22.0009 193.205 22.0009H193.11V22.9272L193.116 22.9327ZM185.873 31.0122C185.873 34.1704 186.799 36.3019 188.01 37.6968C189.589 39.6442 191.536 40.297 193.116 40.3918V41.3181H193.021C191.163 41.3181 188.004 40.9442 185.778 38.1599C184.199 36.3019 183.457 33.8914 183.552 31.6595C183.552 29.9856 183.926 27.7592 185.689 25.6222C186.894 23.9483 189.126 22.0958 193.116 22.0009V22.9272C193.116 22.8323 193.021 22.8323 193.021 22.8323C191.536 22.8323 189.399 23.2061 187.82 24.9694C186.425 26.4536 185.873 28.4958 185.873 31.0067V31.0122Z" fill="#061545"/>
<path fill-rule="evenodd" clip-rule="evenodd" d="M222.086 27.391C221.902 27.391 221.902 27.112 221.902 26.9279C221.902 25.9068 221.718 24.6067 219.859 23.7697C218.28 23.0276 216.517 23.0276 215.775 23.0276C214.101 23.0276 211.97 23.3066 210.391 24.7908C208.906 26.0909 208.164 28.2279 208.164 30.9174C208.164 35.9336 211.507 40.2021 217.354 40.2021C219.117 40.2021 220.881 39.8283 221.623 38.4389C221.902 37.8809 222.086 37.1388 222.181 36.765C222.181 36.6701 222.181 36.5809 222.365 36.5809C222.549 36.5809 222.549 36.8598 222.549 36.9547C222.549 37.6968 222.086 40.2021 221.807 40.576C221.528 40.9498 219.765 41.3181 216.98 41.3181C214.564 41.3181 211.412 41.0391 208.901 38.7179C206.58 36.5809 205.932 33.8914 205.932 31.3805C205.932 28.5962 207.138 26.275 208.717 24.6959C210.48 22.8379 212.896 22.0009 216.143 22.0009C217.259 22.0009 218.186 22.0958 219.207 22.2799C219.67 22.3748 220.133 22.3748 220.691 22.5589C220.97 22.5589 221.154 22.6537 221.433 22.6537C221.991 22.7486 222.175 22.6537 222.359 22.7486C222.454 22.7486 222.454 22.8435 222.543 22.9327V23.1169C222.448 23.7641 222.359 23.9538 222.359 26.1802C222.359 26.7381 222.359 27.3854 222.08 27.3854L222.086 27.391Z" fill="#061545"/>
<path fill-rule="evenodd" clip-rule="evenodd" d="M241.766 27.391C241.582 27.391 241.671 27.112 241.582 26.9279C241.582 25.9068 241.397 24.6067 239.539 23.7697C238.055 23.0276 236.197 23.0276 235.455 23.0276C233.781 23.0276 231.739 23.3066 230.071 24.7908C228.586 26.0909 227.844 28.2279 227.844 30.9174C227.844 35.9336 231.281 40.2021 237.129 40.2021C238.892 40.2021 240.655 39.8283 241.397 38.4389C241.676 37.8809 241.771 37.1388 241.861 36.765C241.861 36.6701 241.955 36.5809 242.045 36.5809C242.229 36.5809 242.229 36.8598 242.229 36.9547C242.229 37.6968 241.855 40.2021 241.582 40.576C241.208 40.9498 239.539 41.3181 236.66 41.3181C234.244 41.3181 231.181 41.0391 228.581 38.7179C226.26 36.5809 225.612 33.8914 225.612 31.3805C225.612 28.5962 226.818 26.275 228.397 24.6959C230.255 22.8379 232.576 22.0009 235.823 22.0009C236.939 22.0009 237.865 22.0958 238.887 22.2799C239.35 22.3748 239.908 22.3748 240.371 22.5589C240.65 22.5589 240.834 22.6537 241.113 22.6537C241.76 22.7486 241.95 22.6537 242.039 22.7486C242.134 22.7486 242.223 22.8435 242.223 22.9327V23.1169C242.128 23.7641 242.039 23.9538 242.039 26.1802C242.039 26.7381 242.134 27.3854 241.76 27.3854L241.766 27.391Z" fill="#061545"/>
<path fill-rule="evenodd" clip-rule="evenodd" d="M261.356 22.6538C261.541 22.3748 261.82 22.0065 262.098 22.0065C262.283 22.0065 262.562 22.1014 262.562 22.7486V36.3967C262.467 39.2759 262.746 40.018 263.025 40.297C263.209 40.576 263.672 40.576 263.951 40.6708H264.23C264.604 40.6708 264.877 40.576 264.877 40.855C264.877 41.0391 264.693 41.0391 264.598 41.0391H264.503C263.577 41.0391 262.645 40.9442 261.808 40.9442H261.25C260.603 40.9442 260.045 40.9442 259.208 41.0391H259.024C258.84 40.9442 258.745 40.855 258.84 40.7601C258.84 40.6653 258.935 40.6653 259.024 40.6653H259.487C259.671 40.5704 259.95 40.4811 260.045 40.3863C260.14 40.2914 260.324 40.0124 260.419 39.181C260.514 38.4389 260.514 37.1388 260.514 36.3967L260.609 25.6278L248.629 40.855C248.534 41.0391 248.255 41.4129 247.982 41.4129C247.798 41.4129 247.608 41.3181 247.608 40.6708V26.0965C247.608 24.2384 247.513 23.6804 247.424 23.4014C247.24 23.0276 246.961 22.8435 246.308 22.7542H245.934C245.839 22.7542 245.75 22.6593 245.75 22.5701C245.75 22.3859 245.934 22.3859 246.029 22.3859H246.213C246.771 22.3859 247.887 22.4808 248.439 22.4808H248.902C249.276 22.4808 249.739 22.4808 250.945 22.3859H251.129C251.224 22.3859 251.313 22.4808 251.313 22.5701C251.313 22.7542 251.129 22.7542 250.85 22.7542L250.571 22.849C250.197 22.849 249.923 23.0332 249.734 23.407C249.734 23.5912 249.55 23.965 249.55 25.2651V37.708L261.34 22.6649L261.356 22.6538Z" fill="#061545"/>
<path fill-rule="evenodd" clip-rule="evenodd" d="M284.479 22.6538C284.663 22.3748 284.942 22.0065 285.221 22.0065C285.405 22.0065 285.684 22.1014 285.684 22.7486L285.589 36.3967C285.589 39.2759 285.773 40.018 286.052 40.297C286.331 40.576 286.795 40.576 287.074 40.6708H287.353C287.632 40.6708 288 40.576 288 40.855C288 41.0391 287.816 41.0391 287.721 41.0391H287.626C286.7 41.0391 285.768 40.9442 284.842 40.9442H284.379C283.731 40.9442 283.173 40.9442 282.241 41.0391H282.147C281.868 40.9442 281.868 40.855 281.868 40.7601C281.962 40.6653 282.052 40.6653 282.052 40.6653H282.61C282.794 40.5704 283.073 40.4811 283.168 40.3863C283.263 40.2914 283.447 40.0124 283.542 39.181C283.636 38.4389 283.636 37.1388 283.636 36.3967V25.6278L271.751 40.855C271.567 41.0391 271.378 41.4129 271.104 41.4129C270.92 41.4129 270.73 41.3181 270.73 40.6708V26.0965C270.73 24.2384 270.636 23.6804 270.546 23.4014C270.362 23.0276 270.083 22.8435 269.43 22.7542H269.056C268.962 22.7542 268.872 22.6593 268.872 22.5701C268.872 22.3859 268.967 22.3859 269.151 22.3859H269.246C269.893 22.3859 271.009 22.4808 271.567 22.4808H271.941C272.404 22.4808 272.778 22.4808 274.078 22.3859H274.173C274.357 22.3859 274.452 22.4808 274.452 22.5701C274.452 22.7542 274.268 22.7542 273.989 22.7542L273.615 22.849C273.336 22.849 273.057 23.0332 272.873 23.407C272.778 23.5912 272.689 23.965 272.689 25.2651V37.708L284.479 22.6649V22.6538Z" fill="#061545"/>
<path fill-rule="evenodd" clip-rule="evenodd" d="M3.43701 24.2329L53.8503 0.836884V39.7391L48.0919 31.4754H3.43701V24.2329Z" fill="#1B2665"/>
<path d="M28.4122 12.2298H28.467L28.5168 12.2068L54.1584 0.390476V41.3472H0.250802L0.344057 12.2298H28.4122Z" fill="#091C5A" stroke="#091C5A" stroke-width="0.5"/>
<path fill-rule="evenodd" clip-rule="evenodd" d="M3.43701 24.2329L53.8503 0.836884V39.7391L48.0919 31.4754H3.43701V24.2329Z" fill="white"/>
<path fill-rule="evenodd" clip-rule="evenodd" d="M3.43701 26.6489L51.9922 12.0689L53.8503 39.739L48.0919 31.4754H3.43701V26.6489Z" fill="#3B6FB6"/>
<path fill-rule="evenodd" clip-rule="evenodd" d="M3.43701 29.0594L49.671 23.2118L53.8503 39.7391L48.0919 31.4755H3.43701V29.0594Z" fill="#E3001F"/>
<path d="M51.3113 57.5385V58.8498C51.3113 59.4133 51.607 59.7314 52.1873 59.7314C52.4775 59.7314 52.7899 59.6309 53.002 59.497V57.5329H53.5432V61.6731H53.002V59.9155H52.9908C52.7007 60.0829 52.3603 60.1722 51.9976 60.1722C51.4508 60.1722 50.7756 59.9378 50.7756 58.9279V57.5329H51.3113V57.5385Z" fill="#061545"/>
<path d="M58.7159 57.5385L59.5361 59.3017C59.6421 59.5472 59.737 59.7872 59.8374 60.0327H59.8486C59.9211 59.8206 59.9992 59.5807 60.1052 59.285L60.7525 57.5441H61.316L60.4512 59.67C60.2224 60.2224 59.9657 60.8529 59.6756 61.2435C59.4078 61.5783 59.1064 61.7512 58.7382 61.7512C58.6043 61.7512 58.5038 61.7401 58.4369 61.7122L58.4927 61.277C58.5373 61.2881 58.5987 61.2937 58.688 61.2937C59.1176 61.2881 59.3687 60.8752 59.497 60.5795C59.5417 60.4846 59.5249 60.4288 59.4803 60.3284L58.1077 57.5385H58.7159Z" fill="#061545"/>
<path d="M65.8467 57.5943C66.081 57.5441 66.4493 57.5106 66.8231 57.5106C67.3588 57.5106 67.6992 57.6054 67.9614 57.8119C68.179 57.9737 68.3074 58.2192 68.3074 58.5429C68.3074 58.9446 68.0451 59.2905 67.6099 59.4524V59.4635C68.0005 59.5639 68.4636 59.8876 68.4636 60.5013C68.4636 60.8585 68.3241 61.1263 68.1121 61.3327C67.8219 61.595 67.3588 61.7177 66.6836 61.7177C66.3154 61.7177 66.0308 61.6954 65.8523 61.6675V57.5999L65.8467 57.5943ZM66.3823 59.2905H66.8678C67.4313 59.2905 67.7661 58.9948 67.7661 58.5986C67.7661 58.1132 67.3979 57.9235 66.8566 57.9235C66.6111 57.9235 66.4716 57.9402 66.3823 57.9626V59.2961V59.2905ZM66.3823 61.2714C66.4884 61.2881 66.639 61.2937 66.8287 61.2937C67.3811 61.2937 67.8889 61.0928 67.8889 60.4902C67.8889 59.9266 67.4034 59.6923 66.8231 59.6923H66.3823V61.2714Z" fill="#061545"/>
<path d="M73.932 60.373L73.5023 61.6731H72.95L74.3561 57.5329H75.0033L76.415 61.6731H75.8459L75.4051 60.373H73.9376H73.932ZM75.2879 59.9546L74.8806 58.7661C74.7857 58.4982 74.7243 58.2527 74.6629 58.0128H74.6518C74.5904 58.2583 74.5234 58.5094 74.4453 58.7605L74.038 59.9601H75.2823L75.2879 59.9546Z" fill="#061545"/>
<path d="M81.6319 57.5385V61.2267H82.9766V57.5385H83.5067V61.2267H84.8459V57.5385H85.3815V61.6787H81.1074V57.5385H81.6375H81.6319Z" fill="#061545"/>
<path d="M93.2823 61.5392C93.087 61.6396 92.6909 61.7345 92.1887 61.7345C91.0225 61.7345 90.1465 60.998 90.1465 59.6421C90.1465 58.2862 91.0225 57.4716 92.3059 57.4716C92.8192 57.4716 93.1484 57.5832 93.2879 57.6557L93.1596 58.0909C92.9587 57.9905 92.6685 57.9179 92.3226 57.9179C91.3517 57.9179 90.71 58.5373 90.71 59.6253C90.71 60.6409 91.2903 61.2881 92.3003 61.2881C92.6239 61.2881 92.9587 61.2212 93.1707 61.1151L93.2823 61.5392Z" fill="#061545"/>
<path d="M98.5667 57.5385V59.3743H98.7341L100.151 57.5385H100.799L99.2307 59.4356C99.9114 59.5305 100.174 59.9434 100.391 60.5014C100.542 60.9254 100.659 61.3049 100.843 61.6731H100.269C100.123 61.3885 100.006 61.0203 99.8947 60.6967C99.705 60.1498 99.4427 59.776 98.7397 59.776H98.5667V61.6731H98.0366V57.5329H98.5667V57.5385Z" fill="#061545"/>
<path d="M108.872 59.5639C108.872 60.9868 108.008 61.7456 106.953 61.7456C105.898 61.7456 105.095 60.8975 105.095 59.6476C105.095 58.3364 105.91 57.4771 107.014 57.4771C108.119 57.4771 108.872 58.342 108.872 59.5695V59.5639ZM105.664 59.6309C105.664 60.5125 106.144 61.3048 106.987 61.3048C107.829 61.3048 108.315 60.5237 108.315 59.5863C108.315 58.766 107.885 57.9068 106.992 57.9068C106.099 57.9068 105.664 58.7214 105.664 59.6309Z" fill="#061545"/>
<path d="M115.797 59.7369H114.19V61.2267H115.981V61.6731H113.654V57.5329H115.886V57.9793H114.184V59.285H115.791V59.7258L115.797 59.7369Z" fill="#061545"/>
<path d="M126.147 57.5887C126.404 57.5441 126.744 57.5106 127.174 57.5106C127.704 57.5106 128.089 57.6333 128.335 57.8565C128.564 58.0518 128.697 58.3531 128.697 58.7214C128.697 59.0897 128.586 59.391 128.379 59.603C128.095 59.9043 127.637 60.055 127.113 60.055C126.951 60.055 126.806 60.0494 126.683 60.0159V61.6731H126.147V57.5831V57.5887ZM126.683 59.5863C126.8 59.6197 126.945 59.6309 127.124 59.6309C127.771 59.6309 128.162 59.3184 128.162 58.7493C128.162 58.1802 127.777 57.9402 127.185 57.9402C126.951 57.9402 126.772 57.957 126.683 57.9849V59.5918V59.5863Z" fill="#061545"/>
<path d="M135.644 59.7369H134.037V61.2267H135.828V61.6731H133.501V57.5329H135.733V57.9793H134.031V59.285H135.638V59.7258L135.644 59.7369Z" fill="#061545"/>
<path d="M142.808 57.5385V57.9849H141.146V61.6731H140.61V57.5329H142.808V57.5385Z" fill="#061545"/>
<path d="M147.858 57.5385V59.2794C147.858 59.9378 147.847 60.4791 147.808 61.0315H147.819C148.026 60.6074 148.288 60.161 148.589 59.67L149.928 57.5385H150.464V61.6787H149.962V59.9155C149.962 59.2459 149.967 58.7549 150.012 58.236H149.995C149.794 58.6824 149.51 59.1622 149.225 59.6253L147.931 61.6843H147.362V57.5441H147.864L147.858 57.5385Z" fill="#061545"/>
<path d="M159.018 59.5639C159.018 60.9868 158.153 61.7456 157.099 61.7456C156.044 61.7456 155.24 60.8975 155.24 59.6476C155.24 58.3364 156.055 57.4771 157.16 57.4771C158.265 57.4771 159.018 58.342 159.018 59.5695V59.5639ZM155.81 59.6309C155.81 60.5125 156.289 61.3048 157.132 61.3048C157.975 61.3048 158.46 60.5237 158.46 59.5863C158.46 58.766 158.03 57.9068 157.138 57.9068C156.245 57.9068 155.81 58.7214 155.81 59.6309Z" fill="#061545"/>
<path d="M164.33 57.5385V59.2682H166.333V57.5385H166.874V61.6787H166.333V59.7369H164.33V61.6787H163.794V57.5385H164.33Z" fill="#061545"/>
<path d="M172.555 60.373L172.125 61.6731H171.573L172.979 57.5329H173.626L175.038 61.6731H174.468L174.028 60.373H172.56H172.555ZM173.91 59.9546L173.503 58.7661C173.408 58.4982 173.347 58.2527 173.286 58.0128H173.274C173.213 58.2583 173.146 58.5094 173.068 58.7605L172.661 59.9601H173.905L173.91 59.9546Z" fill="#061545"/>
<path d="M182.659 57.5385V61.6787H182.118V57.9905H180.751V59.2459C180.751 60.1443 180.712 61.143 180.132 61.5336C179.981 61.6341 179.741 61.7289 179.501 61.7289L179.434 61.2993C179.601 61.2658 179.774 61.1709 179.869 61.0761C180.199 60.7525 180.232 59.949 180.232 59.285V57.5441H182.665L182.659 57.5385Z" fill="#061545"/>
<path d="M188.206 57.5385V59.0841C188.328 59.0674 188.574 59.0562 188.713 59.0562C189.561 59.0562 190.309 59.4301 190.309 60.3451C190.309 60.7301 190.186 61.0147 189.991 61.2267C189.656 61.5838 189.076 61.7122 188.507 61.7122C188.133 61.7122 187.848 61.6899 187.67 61.662V57.5385H188.206ZM188.206 61.2658C188.328 61.2881 188.462 61.2993 188.646 61.2993C189.243 61.2993 189.751 61.0091 189.751 60.3786C189.751 59.7481 189.227 59.4803 188.641 59.4803C188.507 59.4803 188.339 59.4914 188.206 59.5082V61.2658Z" fill="#061545"/>
<path d="M195.621 57.5385V59.2682H197.624V57.5385H198.165V61.6787H197.624V59.7369H195.621V61.6787H195.085V57.5385H195.621Z" fill="#061545"/>
<path d="M206.714 59.5639C206.714 60.9868 205.849 61.7456 204.794 61.7456C203.74 61.7456 202.936 60.8975 202.936 59.6476C202.936 58.3364 203.751 57.4771 204.855 57.4771C205.96 57.4771 206.714 58.342 206.714 59.5695V59.5639ZM203.505 59.6309C203.505 60.5125 203.985 61.3048 204.828 61.3048C205.67 61.3048 206.156 60.5237 206.156 59.5863C206.156 58.766 205.726 57.9068 204.833 57.9068C203.94 57.9068 203.505 58.7214 203.505 59.6309Z" fill="#061545"/>
<path d="M213.638 59.7369H212.031V61.2267H213.822V61.6731H211.496V57.5329H213.728V57.9793H212.026V59.285H213.633V59.7258L213.638 59.7369Z" fill="#061545"/>
<path d="M227.526 59.5639C227.526 60.9868 226.661 61.7456 225.607 61.7456C224.552 61.7456 223.749 60.8975 223.749 59.6476C223.749 58.3364 224.563 57.4771 225.668 57.4771C226.773 57.4771 227.526 58.342 227.526 59.5695V59.5639ZM224.318 59.6309C224.318 60.5125 224.798 61.3048 225.64 61.3048C226.483 61.3048 226.968 60.5237 226.968 59.5863C226.968 58.766 226.538 57.9068 225.646 57.9068C224.753 57.9068 224.318 58.7214 224.318 59.6309Z" fill="#061545"/>
<path d="M233.045 57.9961H231.789V57.5441H234.853V57.9961H233.586V61.6787H233.045V57.9961Z" fill="#061545"/>
<path d="M241.922 57.5385V61.2379L242.285 61.2491L242.246 62.6663H241.827L241.788 61.6731H239.177L239.138 62.6663H238.719L238.68 61.2491L238.993 61.2379C239.149 60.9533 239.3 60.6576 239.4 60.3284C239.539 59.8485 239.595 59.2961 239.595 58.5875V57.5385H241.911H241.922ZM240.103 58.7605C240.103 59.4245 240.042 59.9825 239.897 60.4512C239.813 60.7413 239.685 61.0147 239.556 61.2379H241.386V57.9849H240.103V58.7661V58.7605Z" fill="#061545"/>
<path d="M249.187 59.7369H247.58V61.2267H249.371V61.6731H247.044V57.5329H249.276V57.9793H247.574V59.285H249.181V59.7258L249.187 59.7369Z" fill="#061545"/>
<path d="M257.032 57.5385V61.6787H256.491V57.9905H255.124V59.2459C255.124 60.1443 255.085 61.143 254.505 61.5336C254.354 61.6341 254.114 61.7289 253.874 61.7289L253.807 61.2993C253.975 61.2658 254.147 61.1709 254.242 61.0761C254.572 60.7525 254.605 59.949 254.605 59.285V57.5441H257.038L257.032 57.5385Z" fill="#061545"/>
<path d="M264.185 59.7369H262.578V61.2267H264.369V61.6731H262.042V57.5329H264.274V57.9793H262.573V59.285H264.18V59.7258L264.185 59.7369Z" fill="#061545"/>
<path d="M269.687 57.5385V59.2682H271.69V57.5385H272.231V61.6787H271.69V59.7369H269.687V61.6787H269.151V57.5385H269.687Z" fill="#061545"/>
<path d="M277.744 57.5385V59.2794C277.744 59.9378 277.733 60.4791 277.694 61.0315H277.705C277.911 60.6074 278.174 60.161 278.475 59.67L279.814 57.5385H280.35V61.6787H279.847V59.9155C279.847 59.2459 279.853 58.7549 279.898 58.236H279.881C279.68 58.6824 279.396 59.1622 279.111 59.6253L277.816 61.6843H277.247V57.5441H277.75L277.744 57.5385Z" fill="#061545"/>
<path d="M287.509 59.7369H285.902V61.2267H287.693V61.6731H285.366V57.5329H287.598V57.9793H285.896V59.285H287.503V59.7258L287.509 59.7369Z" fill="#061545"/>
</svg>
